<svg xmlns="http://www.w3.org/2000/svg" xmlns:xlink="http://www.w3.org/1999/xlink" width="456" zoomAndPan="magnify" viewBox="0 0 342 247.499998" height="330" preserveAspectRatio="xMidYMid meet" version="1.0"><defs><clipPath id="6754490265"><path d="M 0.347656 72 L 58.183594 72 L 58.183594 174.957031 L 0.347656 174.957031 Z M 0.347656 72 " clip-rule="nonzero"/></clipPath><clipPath id="484622bf86"><path d="M 14.148438 109.539062 L 44.71875 109.539062 L 44.71875 140 L 14.148438 140 Z M 14.148438 109.539062 " clip-rule="nonzero"/></clipPath><clipPath id="ce1165d380"><path d="M 71.171875 72 L 129.011719 72 L 129.011719 174.957031 L 71.171875 174.957031 Z M 71.171875 72 " clip-rule="nonzero"/></clipPath><clipPath id="2b659684f5"><path d="M 87 116 L 113.382812 116 L 113.382812 140.925781 L 87 140.925781 Z M 87 116 " clip-rule="nonzero"/></clipPath><clipPath id="1f5fe8172a"><path d="M 93 108.699219 L 108 108.699219 L 108 116 L 93 116 Z M 93 108.699219 " clip-rule="nonzero"/></clipPath><clipPath id="8f47a9d92c"><path d="M 142 72 L 199.835938 72 L 199.835938 174.957031 L 142 174.957031 Z M 142 72 " clip-rule="nonzero"/></clipPath><clipPath id="609ba6c749"><path d="M 164 139 L 178 139 L 178 141.761719 L 164 141.761719 Z M 164 139 " clip-rule="nonzero"/></clipPath><clipPath id="38b8ab2e7b"><path d="M 159.597656 112 L 182.730469 112 L 182.730469 116 L 159.597656 116 Z M 159.597656 112 " clip-rule="nonzero"/></clipPath><clipPath id="d9ac61c756"><path d="M 162 109.539062 L 180 109.539062 L 180 112 L 162 112 Z M 162 109.539062 " clip-rule="nonzero"/></clipPath><clipPath id="dd9795e320"><path d="M 212.820312 72 L 270.660156 72 L 270.660156 174.957031 L 212.820312 174.957031 Z M 212.820312 72 " clip-rule="nonzero"/></clipPath><clipPath id="d0f7ed9a78"><path d="M 227.863281 109.539062 L 255.957031 109.539062 L 255.957031 137.632812 L 227.863281 137.632812 Z M 227.863281 109.539062 " clip-rule="nonzero"/></clipPath><clipPath id="ff0c4dcde9"><path d="M 283.648438 72 L 341.484375 72 L 341.484375 174.957031 L 283.648438 174.957031 Z M 283.648438 72 " clip-rule="nonzero"/></clipPath><clipPath id="5fb44dad7a"><path d="M 297.011719 107.859375 L 328.40625 107.859375 L 328.40625 139.257812 L 297.011719 139.257812 Z M 297.011719 107.859375 " clip-rule="nonzero"/></clipPath></defs><g clip-path="url(#6754490265)"><path fill="#ff4a3d" d="M 9.109375 72.039062 L 49.878906 72.039062 C 49.878906 72.058594 49.878906 72.078125 49.878906 72.101562 C 49.878906 76.769531 53.644531 80.558594 58.316406 80.597656 L 58.316406 166.191406 C 53.644531 166.234375 49.878906 170.019531 49.878906 174.691406 C 49.878906 174.773438 49.898438 174.855469 49.898438 174.957031 L 9.109375 174.957031 C 9.109375 174.875 9.128906 174.792969 9.128906 174.691406 C 9.128906 170 5.324219 166.191406 0.628906 166.191406 C 0.546875 166.191406 0.464844 166.210938 0.382812 166.210938 L 0.382812 80.597656 C 0.464844 80.597656 0.546875 80.621094 0.628906 80.621094 C 5.324219 80.621094 9.128906 76.8125 9.128906 72.121094 C 9.109375 72.078125 9.109375 72.058594 9.109375 72.039062 Z M 9.109375 72.039062 " fill-opacity="1" fill-rule="nonzero"/></g><g clip-path="url(#484622bf86)"><path fill="#ffffff" d="M 40.238281 134.433594 C 40.238281 135.1875 39.605469 135.796875 38.820312 135.796875 C 38.039062 135.796875 37.402344 135.1875 37.402344 134.433594 L 37.402344 122.863281 C 37.402344 122.109375 38.039062 121.5 38.820312 121.5 C 39.605469 121.5 40.238281 122.109375 40.238281 122.863281 Z M 21.128906 122.863281 C 21.128906 122.109375 20.496094 121.5 19.710938 121.5 C 18.929688 121.5 18.292969 122.109375 18.292969 122.863281 L 18.292969 134.433594 C 18.292969 135.1875 18.929688 135.796875 19.710938 135.796875 C 20.496094 135.796875 21.128906 135.1875 21.128906 134.433594 Z M 27.5 122.863281 C 27.5 122.109375 26.863281 121.5 26.082031 121.5 C 25.296875 121.5 24.664062 122.109375 24.664062 122.863281 L 24.664062 134.433594 C 24.664062 135.1875 25.296875 135.796875 26.082031 135.796875 C 26.863281 135.796875 27.5 135.1875 27.5 134.433594 Z M 33.867188 122.863281 C 33.867188 122.109375 33.234375 121.5 32.449219 121.5 C 31.667969 121.5 31.03125 122.109375 31.03125 122.863281 L 31.03125 134.433594 C 31.03125 135.1875 31.667969 135.796875 32.449219 135.796875 C 33.234375 135.796875 33.867188 135.1875 33.867188 134.433594 Z M 42.882812 115.8125 L 29.355469 109.558594 L 15.832031 115.8125 Z M 43.925781 118.695312 C 43.925781 117.988281 43.355469 117.417969 42.652344 117.417969 L 16.0625 117.417969 C 15.355469 117.417969 14.785156 117.988281 14.785156 118.695312 C 14.785156 119.402344 15.355469 119.976562 16.0625 119.976562 L 42.652344 119.976562 C 43.355469 119.976562 43.925781 119.402344 43.925781 118.695312 Z M 44.566406 138.574219 C 44.566406 137.835938 43.96875 137.238281 43.234375 137.238281 L 15.480469 137.238281 C 14.746094 137.238281 14.148438 137.835938 14.148438 138.574219 C 14.148438 139.3125 14.746094 139.910156 15.480469 139.910156 L 43.234375 139.910156 C 43.96875 139.910156 44.566406 139.3125 44.566406 138.574219 Z M 44.566406 138.574219 " fill-opacity="1" fill-rule="nonzero"/></g><g clip-path="url(#ce1165d380)"><path fill="#ffd93b" d="M 79.933594 72.039062 L 120.703125 72.039062 C 120.703125 72.058594 120.703125 72.078125 120.703125 72.101562 C 120.703125 76.769531 124.46875 80.558594 129.140625 80.597656 L 129.140625 166.191406 C 124.46875 166.234375 120.703125 170.019531 120.703125 174.691406 C 120.703125 174.773438 120.722656 174.855469 120.722656 174.957031 L 79.933594 174.957031 C 79.933594 174.875 79.953125 174.792969 79.953125 174.691406 C 79.953125 170 76.148438 166.191406 71.457031 166.191406 C 71.371094 166.191406 71.289062 166.210938 71.207031 166.210938 L 71.207031 80.597656 C 71.289062 80.597656 71.371094 80.621094 71.457031 80.621094 C 76.148438 80.621094 79.953125 76.8125 79.953125 72.121094 C 79.933594 72.078125 79.933594 72.058594 79.933594 72.039062 Z M 79.933594 72.039062 " fill-opacity="1" fill-rule="nonzero"/></g><g clip-path="url(#2b659684f5)"><path fill="#ffffff" d="M 95.308594 119.515625 C 95.589844 121.992188 97.683594 123.863281 100.171875 123.867188 C 102.664062 123.863281 104.78125 121.996094 105.035156 119.515625 L 107.152344 119.539062 C 106.863281 123.140625 103.835938 126 100.175781 126 C 96.511719 126 93.484375 123.140625 93.195312 119.539062 Z M 92.449219 116.816406 C 90.421875 116.816406 89.855469 117.171875 89.585938 119.1875 L 87.207031 137.757812 C 86.9375 139.769531 88.050781 140.632812 90.082031 140.632812 L 110.265625 140.632812 C 112.296875 140.632812 113.410156 139.769531 113.140625 137.757812 L 110.761719 119.1875 C 110.488281 117.171875 109.925781 116.816406 107.898438 116.816406 Z M 92.449219 116.816406 " fill-opacity="1" fill-rule="nonzero"/></g><g clip-path="url(#1f5fe8172a)"><path fill="#ffffff" d="M 93.195312 115.308594 L 95.308594 115.308594 C 95.589844 112.832031 97.683594 110.960938 100.171875 110.957031 C 102.664062 110.960938 104.78125 112.828125 105.035156 115.308594 L 107.152344 115.308594 C 106.863281 111.707031 103.835938 108.824219 100.175781 108.824219 C 96.511719 108.824219 93.484375 111.707031 93.195312 115.308594 Z M 93.195312 115.308594 " fill-opacity="1" fill-rule="nonzero"/></g><g clip-path="url(#8f47a9d92c)"><path fill="#4dbeff" d="M 150.757812 72.039062 L 191.527344 72.039062 C 191.527344 72.058594 191.527344 72.078125 191.527344 72.101562 C 191.527344 76.769531 195.292969 80.558594 199.964844 80.597656 L 199.964844 166.191406 C 195.292969 166.234375 191.527344 170.019531 191.527344 174.691406 C 191.527344 174.773438 191.550781 174.855469 191.550781 174.957031 L 150.757812 174.957031 C 150.757812 174.875 150.78125 174.792969 150.78125 174.691406 C 150.78125 170 146.972656 166.191406 142.28125 166.191406 C 142.199219 166.191406 142.117188 166.210938 142.035156 166.210938 L 142.035156 80.597656 C 142.117188 80.597656 142.199219 80.621094 142.28125 80.621094 C 146.972656 80.621094 150.78125 76.8125 150.78125 72.121094 C 150.757812 72.078125 150.757812 72.058594 150.757812 72.039062 Z M 150.757812 72.039062 " fill-opacity="1" fill-rule="nonzero"/></g><g clip-path="url(#609ba6c749)"><path fill="#ffffff" d="M 165.136719 139.816406 L 177.035156 139.816406 C 177.277344 139.816406 177.480469 140.015625 177.480469 140.261719 C 177.480469 140.996094 176.878906 141.597656 176.144531 141.597656 L 166.019531 141.597656 C 165.285156 141.597656 164.683594 140.996094 164.683594 140.261719 C 164.691406 140.019531 164.886719 139.816406 165.136719 139.816406 Z M 165.136719 139.816406 " fill-opacity="1" fill-rule="evenodd"/></g><g clip-path="url(#38b8ab2e7b)"><path fill="#ffffff" d="M 159.597656 115.75 L 182.117188 115.75 C 182.359375 115.75 182.5625 115.554688 182.5625 115.308594 L 182.5625 114.476562 C 182.5625 113.285156 181.589844 112.3125 180.398438 112.3125 L 161.324219 112.3125 C 160.375 112.3125 159.601562 113.082031 159.601562 114.03125 Z M 159.597656 115.75 " fill-opacity="1" fill-rule="evenodd"/></g><g clip-path="url(#d9ac61c756)"><path fill="#ffffff" d="M 162.800781 111.34375 L 179.371094 111.34375 C 179.613281 111.34375 179.816406 111.144531 179.816406 110.898438 C 179.816406 110.164062 179.214844 109.5625 178.480469 109.5625 L 163.683594 109.5625 C 162.953125 109.5625 162.351562 110.164062 162.351562 110.898438 C 162.355469 111.144531 162.550781 111.34375 162.800781 111.34375 Z M 162.800781 111.34375 " fill-opacity="1" fill-rule="evenodd"/></g><path fill="#ffffff" d="M 163.195312 116.71875 L 178.976562 116.71875 C 179.234375 116.71875 179.4375 116.9375 179.421875 117.191406 L 178.996094 124.058594 C 178.984375 124.296875 178.789062 124.476562 178.554688 124.476562 L 174.375 124.476562 C 174.25 124.476562 174.136719 124.425781 174.050781 124.339844 C 173.308594 123.554688 172.253906 123.070312 171.082031 123.070312 C 169.910156 123.070312 168.863281 123.5625 168.113281 124.339844 C 168.027344 124.425781 167.910156 124.476562 167.792969 124.476562 L 163.683594 124.476562 C 163.449219 124.476562 163.257812 124.296875 163.238281 124.066406 L 162.75 117.199219 C 162.734375 116.941406 162.9375 116.71875 163.195312 116.71875 Z M 178.683594 128.953125 L 178.09375 138.4375 C 178.082031 138.671875 177.886719 138.855469 177.652344 138.855469 L 164.710938 138.855469 C 164.476562 138.855469 164.285156 138.671875 164.265625 138.445312 L 163.625 129.429688 C 163.605469 129.175781 163.808594 128.953125 164.070312 128.953125 L 167.117188 128.953125 C 167.28125 128.953125 167.433594 129.039062 167.511719 129.175781 C 168.210938 130.425781 169.550781 131.269531 171.089844 131.269531 C 172.625 131.269531 173.96875 130.425781 174.667969 129.175781 C 174.746094 129.039062 174.894531 128.953125 175.058594 128.953125 Z M 178.683594 128.953125 " fill-opacity="1" fill-rule="evenodd"/><g clip-path="url(#dd9795e320)"><path fill="#6ceb5f" d="M 221.585938 72.039062 L 262.355469 72.039062 C 262.355469 72.058594 262.355469 72.078125 262.355469 72.101562 C 262.355469 76.769531 266.121094 80.558594 270.792969 80.597656 L 270.792969 166.191406 C 266.121094 166.234375 262.355469 170.019531 262.355469 174.691406 C 262.355469 174.773438 262.375 174.855469 262.375 174.957031 L 221.585938 174.957031 C 221.585938 174.875 221.605469 174.792969 221.605469 174.691406 C 221.605469 170 217.796875 166.191406 213.105469 166.191406 C 213.023438 166.191406 212.941406 166.210938 212.859375 166.210938 L 212.859375 80.597656 C 212.941406 80.597656 213.023438 80.621094 213.105469 80.621094 C 217.796875 80.621094 221.605469 76.8125 221.605469 72.121094 C 221.585938 72.078125 221.585938 72.058594 221.585938 72.039062 Z M 221.585938 72.039062 " fill-opacity="1" fill-rule="nonzero"/></g><g clip-path="url(#d0f7ed9a78)"><path fill="#ffffff" d="M 252.554688 115.980469 C 252.554688 115.980469 233.917969 115.980469 230.707031 115.980469 C 229.765625 115.980469 228.925781 115.792969 228.925781 114.90625 L 252.554688 113.832031 L 252.554688 111.6875 C 252.554688 109.910156 251.113281 109.539062 249.335938 109.539062 L 230.035156 112.761719 C 228.3125 113.140625 227.863281 113.871094 227.863281 114.90625 L 227.863281 134.230469 C 227.863281 136.007812 229.308594 137.453125 231.085938 137.453125 L 252.554688 137.453125 C 254.332031 137.453125 255.777344 136.007812 255.777344 134.230469 L 255.777344 119.203125 C 255.777344 117.421875 254.332031 115.980469 252.554688 115.980469 Z M 251.480469 128.863281 C 250.296875 128.863281 249.335938 127.902344 249.335938 126.714844 C 249.335938 125.53125 250.296875 124.570312 251.480469 124.570312 C 252.667969 124.570312 253.628906 125.53125 253.628906 126.714844 C 253.628906 127.902344 252.667969 128.863281 251.480469 128.863281 Z M 251.480469 128.863281 " fill-opacity="1" fill-rule="nonzero"/></g><g clip-path="url(#ff0c4dcde9)"><path fill="#d3d3d3" d="M 292.410156 72.039062 L 333.179688 72.039062 C 333.179688 72.058594 333.179688 72.078125 333.179688 72.101562 C 333.179688 76.769531 336.945312 80.558594 341.617188 80.597656 L 341.617188 166.191406 C 336.945312 166.234375 333.179688 170.019531 333.179688 174.691406 C 333.179688 174.773438 333.199219 174.855469 333.199219 174.957031 L 292.410156 174.957031 C 292.410156 174.875 292.429688 174.792969 292.429688 174.691406 C 292.429688 170 288.621094 166.191406 283.929688 166.191406 C 283.847656 166.191406 283.765625 166.210938 283.683594 166.210938 L 283.683594 80.597656 C 283.765625 80.597656 283.847656 80.621094 283.929688 80.621094 C 288.621094 80.621094 292.429688 76.8125 292.429688 72.121094 C 292.410156 72.078125 292.410156 72.058594 292.410156 72.039062 Z M 292.410156 72.039062 " fill-opacity="1" fill-rule="nonzero"/></g><g clip-path="url(#5fb44dad7a)"><path fill="#ffffff" d="M 318.527344 124.40625 L 318.527344 131.554688 C 318.527344 131.554688 318.652344 132.75 317.480469 132.75 C 316.308594 132.75 316.089844 131.675781 316.089844 131.675781 L 316.089844 124.402344 C 314.597656 123.710938 313.515625 121.808594 313.515625 119.546875 C 313.515625 116.699219 315.214844 114.390625 317.3125 114.390625 C 319.40625 114.390625 321.109375 116.699219 321.109375 119.546875 C 321.109375 121.8125 320.023438 123.714844 318.527344 124.40625 Z M 309.175781 124.699219 L 309.175781 131.210938 C 309.175781 131.210938 309.203125 132.613281 308.039062 132.613281 C 306.875 132.613281 306.875 131.238281 306.875 131.238281 L 306.875 124.671875 C 306.875 124.671875 304.453125 124.222656 304.242188 121.839844 C 304.03125 119.457031 304.429688 115.355469 304.429688 115.355469 C 304.429688 115.355469 304.585938 114.503906 305.144531 114.503906 C 305.699219 114.503906 305.804688 115.433594 305.804688 115.433594 L 305.804688 120.4375 C 305.773438 120.757812 306.136719 121.125 306.679688 121.125 C 307.417969 121.125 307.417969 120.59375 307.417969 120.59375 L 307.417969 115.484375 C 307.417969 115.484375 307.527344 114.425781 308.160156 114.425781 C 308.796875 114.425781 308.796875 115.511719 308.796875 115.511719 L 308.796875 120.65625 C 308.796875 120.65625 308.777344 121.25 309.460938 121.25 C 310.308594 121.25 310.292969 120.695312 310.292969 120.695312 L 310.292969 115.484375 C 310.292969 115.484375 310.226562 114.242188 311.125 114.242188 C 311.839844 114.242188 311.867188 115.460938 311.867188 115.460938 C 311.867188 115.460938 311.9375 121.269531 311.9375 121.984375 C 311.9375 122.699219 311.214844 123.984375 309.175781 124.699219 Z M 312.644531 107.859375 C 304.023438 107.859375 297.011719 114.875 297.011719 123.496094 C 297.011719 132.113281 304.023438 139.128906 312.644531 139.128906 C 321.265625 139.128906 328.277344 132.113281 328.277344 123.496094 C 328.277344 114.875 321.265625 107.859375 312.644531 107.859375 " fill-opacity="1" fill-rule="nonzero"/></g></svg>