<svg xmlns="http://www.w3.org/2000/svg" xmlns:xlink="http://www.w3.org/1999/xlink" width="1024" zoomAndPan="magnify" viewBox="0 0 768 767.999994" height="1024" preserveAspectRatio="xMidYMid meet" version="1.0"><defs><clipPath id="ce2bc892dc"><path d="M 0.00390625 268 L 130.148438 268 L 130.148438 499.789062 L 0.00390625 499.789062 Z M 0.00390625 268 " clip-rule="nonzero"/></clipPath><clipPath id="070abc27b0"><path d="M 31.058594 352.585938 L 99.851562 352.585938 L 99.851562 421 L 31.058594 421 Z M 31.058594 352.585938 " clip-rule="nonzero"/></clipPath><clipPath id="d13071c7d8"><path d="M 159.371094 268 L 289.515625 268 L 289.515625 499.789062 L 159.371094 499.789062 Z M 159.371094 268 " clip-rule="nonzero"/></clipPath><clipPath id="7bf7d5111d"><path d="M 208 350.695312 L 241 350.695312 L 241 366 L 208 366 Z M 208 350.695312 " clip-rule="nonzero"/></clipPath><clipPath id="b3fb58a02d"><path d="M 318.738281 268 L 448.882812 268 L 448.882812 499.789062 L 318.738281 499.789062 Z M 318.738281 268 " clip-rule="nonzero"/></clipPath><clipPath id="4fb7205d44"><path d="M 358.339844 358 L 410.398438 358 L 410.398438 367 L 358.339844 367 Z M 358.339844 358 " clip-rule="nonzero"/></clipPath><clipPath id="843d720134"><path d="M 364 352.585938 L 404 352.585938 L 404 357 L 364 357 Z M 364 352.585938 " clip-rule="nonzero"/></clipPath><clipPath id="8dbb562eb3"><path d="M 478.105469 268 L 608.25 268 L 608.25 499.789062 L 478.105469 499.789062 Z M 478.105469 268 " clip-rule="nonzero"/></clipPath><clipPath id="9cf14bb6fc"><path d="M 511.953125 352.585938 L 575 352.585938 L 575 415.796875 L 511.953125 415.796875 Z M 511.953125 352.585938 " clip-rule="nonzero"/></clipPath><clipPath id="b6dd936d1a"><path d="M 637.472656 268 L 767.617188 268 L 767.617188 499.789062 L 637.472656 499.789062 Z M 637.472656 268 " clip-rule="nonzero"/></clipPath><clipPath id="76be02b45c"><path d="M 667.542969 348.808594 L 738 348.808594 L 738 419.457031 L 667.542969 419.457031 Z M 667.542969 348.808594 " clip-rule="nonzero"/></clipPath></defs><g clip-path="url(#ce2bc892dc)"><path fill="#f16e60" d="M 19.722656 268.203125 L 111.457031 268.203125 C 111.457031 268.246094 111.457031 268.292969 111.457031 268.339844 C 111.457031 278.851562 119.933594 287.375 130.445312 287.464844 L 130.445312 480.0625 C 119.933594 480.152344 111.457031 488.675781 111.457031 499.1875 C 111.457031 499.371094 111.503906 499.558594 111.503906 499.789062 L 19.722656 499.789062 C 19.722656 499.605469 19.765625 499.417969 19.765625 499.1875 C 19.765625 488.628906 11.199219 480.0625 0.640625 480.0625 C 0.457031 480.0625 0.273438 480.109375 0.0859375 480.109375 L 0.0859375 287.464844 C 0.273438 287.464844 0.457031 287.511719 0.640625 287.511719 C 11.199219 287.511719 19.765625 278.945312 19.765625 268.386719 C 19.722656 268.292969 19.722656 268.246094 19.722656 268.203125 Z M 19.722656 268.203125 " fill-opacity="1" fill-rule="nonzero"/></g><g clip-path="url(#070abc27b0)"><path fill="#ffffff" d="M 89.765625 408.605469 C 89.765625 410.300781 88.339844 411.671875 86.578125 411.671875 C 84.8125 411.671875 83.386719 410.300781 83.386719 408.605469 L 83.386719 382.5625 C 83.386719 380.871094 84.8125 379.496094 86.578125 379.496094 C 88.339844 379.496094 89.765625 380.871094 89.765625 382.5625 Z M 46.769531 382.5625 C 46.769531 380.871094 45.34375 379.496094 43.582031 379.496094 C 41.816406 379.496094 40.390625 380.871094 40.390625 382.5625 L 40.390625 408.605469 C 40.390625 410.296875 41.816406 411.671875 43.582031 411.671875 C 45.34375 411.671875 46.769531 410.296875 46.769531 408.605469 Z M 61.101562 382.5625 C 61.101562 380.871094 59.675781 379.496094 57.910156 379.496094 C 56.148438 379.496094 54.722656 380.871094 54.722656 382.5625 L 54.722656 408.605469 C 54.722656 410.296875 56.148438 411.671875 57.910156 411.671875 C 59.675781 411.671875 61.101562 410.296875 61.101562 408.605469 Z M 75.433594 382.5625 C 75.433594 380.871094 74.003906 379.496094 72.242188 379.496094 C 70.480469 379.496094 69.054688 380.871094 69.054688 382.5625 L 69.054688 408.605469 C 69.054688 410.296875 70.480469 411.671875 72.242188 411.671875 C 74.003906 411.671875 75.433594 410.296875 75.433594 408.605469 Z M 95.71875 366.699219 L 65.28125 352.625 L 34.84375 366.699219 Z M 98.066406 373.191406 C 98.066406 371.597656 96.78125 370.308594 95.195312 370.308594 L 35.367188 370.308594 C 33.78125 370.308594 32.496094 371.597656 32.496094 373.191406 C 32.496094 374.78125 33.78125 376.070312 35.367188 376.070312 L 95.195312 376.070312 C 96.78125 376.070312 98.066406 374.78125 98.066406 373.191406 Z M 99.503906 417.914062 C 99.503906 416.253906 98.160156 414.90625 96.507812 414.90625 L 34.054688 414.90625 C 32.402344 414.910156 31.058594 416.253906 31.058594 417.914062 C 31.058594 419.574219 32.402344 420.921875 34.054688 420.921875 L 96.507812 420.921875 C 98.160156 420.921875 99.503906 419.574219 99.503906 417.914062 Z M 99.503906 417.914062 " fill-opacity="1" fill-rule="nonzero"/></g><g clip-path="url(#d13071c7d8)"><path fill="#ffd93b" d="M 179.089844 268.203125 L 270.824219 268.203125 C 270.824219 268.246094 270.824219 268.292969 270.824219 268.339844 C 270.824219 278.851562 279.300781 287.375 289.8125 287.464844 L 289.8125 480.0625 C 279.300781 480.152344 270.824219 488.675781 270.824219 499.1875 C 270.824219 499.371094 270.871094 499.558594 270.871094 499.789062 L 179.089844 499.789062 C 179.089844 499.605469 179.132812 499.417969 179.132812 499.1875 C 179.132812 488.628906 170.566406 480.0625 160.007812 480.0625 C 159.824219 480.0625 159.640625 480.109375 159.453125 480.109375 L 159.453125 287.464844 C 159.640625 287.464844 159.824219 287.511719 160.007812 287.511719 C 170.566406 287.511719 179.132812 278.945312 179.132812 268.386719 C 179.089844 268.292969 179.089844 268.246094 179.089844 268.203125 Z M 179.089844 268.203125 " fill-opacity="1" fill-rule="nonzero"/></g><path fill="#ffffff" d="M 213.6875 375.035156 C 214.320312 380.609375 219.027344 384.816406 224.628906 384.820312 C 230.230469 384.816406 234.996094 380.613281 235.570312 375.035156 L 240.332031 375.085938 C 239.683594 383.1875 232.875 389.621094 224.632812 389.621094 C 216.390625 389.621094 209.578125 383.1875 208.925781 375.085938 Z M 207.25 368.957031 C 202.6875 368.957031 201.417969 369.761719 200.808594 374.292969 L 195.453125 416.078125 C 194.84375 420.609375 197.355469 422.550781 201.917969 422.550781 L 247.335938 422.550781 C 251.90625 422.550781 254.417969 420.609375 253.804688 416.078125 L 248.453125 374.292969 C 247.839844 369.761719 246.574219 368.957031 242.011719 368.957031 Z M 207.25 368.957031 " fill-opacity="1" fill-rule="nonzero"/><g clip-path="url(#7bf7d5111d)"><path fill="#ffffff" d="M 208.925781 365.5625 L 213.6875 365.5625 C 214.320312 359.992188 219.027344 355.78125 224.628906 355.777344 C 230.230469 355.78125 234.996094 359.984375 235.570312 365.5625 L 240.332031 365.5625 C 239.679688 357.464844 232.875 350.980469 224.632812 350.980469 C 216.390625 350.980469 209.574219 357.464844 208.925781 365.5625 Z M 208.925781 365.5625 " fill-opacity="1" fill-rule="nonzero"/></g><g clip-path="url(#b3fb58a02d)"><path fill="#45afe4" d="M 338.457031 268.203125 L 430.191406 268.203125 C 430.191406 268.246094 430.191406 268.292969 430.191406 268.339844 C 430.191406 278.851562 438.667969 287.375 449.179688 287.464844 L 449.179688 480.0625 C 438.667969 480.152344 430.191406 488.675781 430.191406 499.1875 C 430.191406 499.371094 430.238281 499.558594 430.238281 499.789062 L 338.457031 499.789062 C 338.457031 499.605469 338.5 499.417969 338.5 499.1875 C 338.5 488.628906 329.933594 480.0625 319.375 480.0625 C 319.191406 480.0625 319.007812 480.109375 318.820312 480.109375 L 318.820312 287.464844 C 319.007812 287.464844 319.191406 287.511719 319.375 287.511719 C 329.933594 287.511719 338.5 278.945312 338.5 268.386719 C 338.457031 268.292969 338.457031 268.246094 338.457031 268.203125 Z M 338.457031 268.203125 " fill-opacity="1" fill-rule="nonzero"/></g><path fill="#ffffff" d="M 370.804688 420.71875 L 397.582031 420.71875 C 398.125 420.71875 398.582031 421.160156 398.582031 421.71875 C 398.582031 423.367188 397.226562 424.71875 395.578125 424.71875 L 372.792969 424.71875 C 371.144531 424.71875 369.789062 423.367188 369.789062 421.71875 C 369.804688 421.171875 370.246094 420.71875 370.804688 420.71875 Z M 370.804688 420.71875 " fill-opacity="1" fill-rule="evenodd"/><g clip-path="url(#4fb7205d44)"><path fill="#ffffff" d="M 358.339844 366.5625 L 409.019531 366.5625 C 409.5625 366.5625 410.019531 366.121094 410.019531 365.5625 L 410.019531 363.695312 C 410.019531 361.015625 407.824219 358.820312 405.148438 358.820312 L 362.226562 358.820312 C 360.089844 358.820312 358.351562 360.558594 358.351562 362.691406 Z M 358.339844 366.5625 " fill-opacity="1" fill-rule="evenodd"/></g><g clip-path="url(#843d720134)"><path fill="#ffffff" d="M 365.550781 356.644531 L 402.835938 356.644531 C 403.378906 356.644531 403.835938 356.203125 403.835938 355.640625 C 403.835938 353.992188 402.484375 352.640625 400.832031 352.640625 L 367.539062 352.640625 C 365.890625 352.640625 364.535156 353.992188 364.535156 355.640625 C 364.550781 356.203125 364.992188 356.644531 365.550781 356.644531 Z M 365.550781 356.644531 " fill-opacity="1" fill-rule="evenodd"/></g><path fill="#ffffff" d="M 366.433594 368.742188 L 401.953125 368.742188 C 402.527344 368.742188 402.984375 369.226562 402.953125 369.800781 L 401.996094 385.257812 C 401.96875 385.789062 401.527344 386.199219 400.996094 386.199219 L 391.589844 386.199219 C 391.308594 386.199219 391.058594 386.082031 390.867188 385.890625 C 389.191406 384.125 386.820312 383.035156 384.1875 383.035156 C 381.550781 383.035156 379.195312 384.140625 377.503906 385.890625 C 377.3125 386.082031 377.046875 386.199219 376.78125 386.199219 L 367.539062 386.199219 C 367.007812 386.199219 366.582031 385.789062 366.539062 385.273438 L 365.433594 369.816406 C 365.402344 369.242188 365.859375 368.742188 366.433594 368.742188 Z M 401.289062 396.269531 L 399.964844 417.609375 C 399.9375 418.140625 399.496094 418.554688 398.964844 418.554688 L 369.847656 418.554688 C 369.320312 418.554688 368.894531 418.140625 368.847656 417.625 L 367.40625 397.34375 C 367.363281 396.769531 367.816406 396.269531 368.40625 396.269531 L 375.265625 396.269531 C 375.632812 396.269531 375.972656 396.460938 376.148438 396.769531 C 377.722656 399.578125 380.742188 401.480469 384.199219 401.480469 C 387.660156 401.480469 390.675781 399.578125 392.253906 396.769531 C 392.429688 396.460938 392.769531 396.269531 393.136719 396.269531 Z M 401.289062 396.269531 " fill-opacity="1" fill-rule="evenodd"/><g clip-path="url(#8dbb562eb3)"><path fill="#60c84e" d="M 497.824219 268.203125 L 589.558594 268.203125 C 589.558594 268.246094 589.558594 268.292969 589.558594 268.339844 C 589.558594 278.851562 598.035156 287.375 608.546875 287.464844 L 608.546875 480.0625 C 598.035156 480.152344 589.558594 488.675781 589.558594 499.1875 C 589.558594 499.371094 589.605469 499.558594 589.605469 499.789062 L 497.824219 499.789062 C 497.824219 499.605469 497.867188 499.417969 497.867188 499.1875 C 497.867188 488.628906 489.300781 480.0625 478.742188 480.0625 C 478.558594 480.0625 478.375 480.109375 478.1875 480.109375 L 478.1875 287.464844 C 478.375 287.464844 478.558594 287.511719 478.742188 287.511719 C 489.300781 287.511719 497.867188 278.945312 497.867188 268.386719 C 497.824219 268.292969 497.824219 268.246094 497.824219 268.203125 Z M 497.824219 268.203125 " fill-opacity="1" fill-rule="nonzero"/></g><g clip-path="url(#9cf14bb6fc)"><path fill="#ffffff" d="M 567.511719 367.078125 C 567.511719 367.078125 525.578125 367.078125 518.347656 367.078125 C 516.226562 367.078125 514.34375 366.652344 514.34375 364.664062 L 567.511719 362.246094 L 567.511719 357.417969 C 567.511719 353.417969 564.265625 352.585938 560.265625 352.585938 L 516.835938 359.832031 C 512.964844 360.691406 511.953125 362.332031 511.953125 364.664062 L 511.953125 408.144531 C 511.953125 412.144531 515.199219 415.390625 519.199219 415.390625 L 567.511719 415.390625 C 571.511719 415.390625 574.757812 412.144531 574.757812 408.144531 L 574.757812 374.324219 C 574.757812 370.324219 571.511719 367.078125 567.511719 367.078125 Z M 565.097656 396.066406 C 562.429688 396.066406 560.265625 393.902344 560.265625 391.234375 C 560.265625 388.570312 562.429688 386.402344 565.097656 386.402344 C 567.761719 386.402344 569.925781 388.570312 569.925781 391.234375 C 569.925781 393.902344 567.761719 396.066406 565.097656 396.066406 Z M 565.097656 396.066406 " fill-opacity="1" fill-rule="nonzero"/></g><g clip-path="url(#b6dd936d1a)"><path fill="#bfb3a2" d="M 657.191406 268.203125 L 748.925781 268.203125 C 748.925781 268.246094 748.925781 268.292969 748.925781 268.339844 C 748.925781 278.851562 757.402344 287.375 767.914062 287.464844 L 767.914062 480.0625 C 757.402344 480.152344 748.925781 488.675781 748.925781 499.1875 C 748.925781 499.371094 748.972656 499.558594 748.972656 499.789062 L 657.191406 499.789062 C 657.191406 499.605469 657.234375 499.417969 657.234375 499.1875 C 657.234375 488.628906 648.667969 480.0625 638.109375 480.0625 C 637.925781 480.0625 637.742188 480.109375 637.554688 480.109375 L 637.554688 287.464844 C 637.742188 287.464844 637.925781 287.511719 638.109375 287.511719 C 648.667969 287.511719 657.234375 278.945312 657.234375 268.386719 C 657.191406 268.292969 657.191406 268.246094 657.191406 268.203125 Z M 657.191406 268.203125 " fill-opacity="1" fill-rule="nonzero"/></g><g clip-path="url(#76be02b45c)"><path fill="#ffffff" d="M 715.960938 386.035156 L 715.960938 402.121094 C 715.960938 402.121094 716.238281 404.808594 713.601562 404.808594 C 710.96875 404.808594 710.472656 402.394531 710.472656 402.394531 L 710.472656 386.03125 C 707.113281 384.472656 704.683594 380.195312 704.683594 375.101562 C 704.683594 368.695312 708.503906 363.503906 713.222656 363.503906 C 717.9375 363.503906 721.765625 368.695312 721.765625 375.101562 C 721.765625 380.199219 719.328125 384.480469 715.960938 386.035156 Z M 694.917969 386.699219 L 694.917969 401.351562 C 694.917969 401.351562 694.980469 404.507812 692.359375 404.507812 C 689.738281 404.507812 689.738281 401.414062 689.738281 401.414062 L 689.738281 386.640625 C 689.738281 386.640625 684.292969 385.625 683.816406 380.265625 C 683.339844 374.902344 684.234375 365.667969 684.234375 365.667969 C 684.234375 365.667969 684.589844 363.761719 685.839844 363.761719 C 687.09375 363.761719 687.332031 365.847656 687.332031 365.847656 L 687.332031 377.105469 C 687.257812 377.832031 688.078125 378.652344 689.296875 378.652344 C 690.964844 378.652344 690.964844 377.464844 690.964844 377.464844 L 690.964844 365.964844 C 690.964844 365.964844 691.207031 363.582031 692.632812 363.582031 C 694.0625 363.582031 694.0625 366.023438 694.0625 366.023438 L 694.0625 377.597656 C 694.0625 377.597656 694.023438 378.933594 695.558594 378.933594 C 697.464844 378.933594 697.429688 377.683594 697.429688 377.683594 L 697.429688 365.964844 C 697.429688 365.964844 697.28125 363.167969 699.304688 363.167969 C 700.914062 363.167969 700.972656 365.90625 700.972656 365.90625 C 700.972656 365.90625 701.128906 378.976562 701.128906 380.585938 C 701.128906 382.195312 699.507812 385.089844 694.917969 386.699219 Z M 702.722656 348.808594 C 683.324219 348.808594 667.542969 364.589844 667.542969 383.988281 C 667.542969 403.382812 683.324219 419.164062 702.722656 419.164062 C 722.117188 419.164062 737.898438 403.382812 737.898438 383.988281 C 737.898438 364.589844 722.117188 348.808594 702.722656 348.808594 " fill-opacity="1" fill-rule="nonzero"/></g></svg>