<svg xmlns="http://www.w3.org/2000/svg" xmlns:xlink="http://www.w3.org/1999/xlink" width="500" zoomAndPan="magnify" viewBox="0 0 375 374.999991" height="500" preserveAspectRatio="xMidYMid meet" version="1.0"><defs><clipPath id="81dca838dd"><path d="M 33.050781 10.792969 L 341.933594 10.792969 L 341.933594 375 L 33.050781 375 Z M 33.050781 10.792969 " clip-rule="nonzero"/></clipPath><clipPath id="726beff1d3"><path d="M 341.933594 34.792969 L 341.933594 563.328125 C 341.933594 569.691406 339.402344 575.796875 334.902344 580.296875 C 330.402344 584.796875 324.296875 587.328125 317.933594 587.328125 L 57.050781 587.328125 C 50.683594 587.328125 44.578125 584.796875 40.078125 580.296875 C 35.578125 575.796875 33.050781 569.691406 33.050781 563.328125 L 33.050781 34.792969 C 33.050781 28.425781 35.578125 22.320312 40.078125 17.820312 C 44.578125 13.320312 50.683594 10.792969 57.050781 10.792969 L 317.933594 10.792969 C 324.296875 10.792969 330.402344 13.320312 334.902344 17.820312 C 339.402344 22.320312 341.933594 28.425781 341.933594 34.792969 Z M 341.933594 34.792969 " clip-rule="nonzero"/></clipPath><clipPath id="7fceb07252"><path d="M 108.351562 66.082031 L 315.5 66.082031 L 315.5 98.238281 L 108.351562 98.238281 Z M 108.351562 66.082031 " clip-rule="nonzero"/></clipPath><clipPath id="2beb8f45cf"><path d="M 112.851562 66.082031 L 310.929688 66.082031 C 313.414062 66.082031 315.429688 68.09375 315.429688 70.582031 L 315.429688 93.738281 C 315.429688 96.226562 313.414062 98.238281 310.929688 98.238281 L 112.851562 98.238281 C 110.367188 98.238281 108.351562 96.226562 108.351562 93.738281 L 108.351562 70.582031 C 108.351562 68.09375 110.367188 66.082031 112.851562 66.082031 Z M 112.851562 66.082031 " clip-rule="nonzero"/></clipPath><clipPath id="f67f8e1235"><path d="M 53.851562 123.125 L 321.6875 123.125 L 321.6875 265.082031 L 53.851562 265.082031 Z M 53.851562 123.125 " clip-rule="nonzero"/></clipPath><clipPath id="6d5e0993f5"><path d="M 59.101562 123.125 L 315.898438 123.125 C 317.292969 123.125 318.628906 123.675781 319.613281 124.660156 C 320.597656 125.644531 321.148438 126.980469 321.148438 128.375 L 321.148438 259.832031 C 321.148438 261.226562 320.597656 262.558594 319.613281 263.542969 C 318.628906 264.527344 317.292969 265.082031 315.898438 265.082031 L 59.101562 265.082031 C 57.707031 265.082031 56.371094 264.527344 55.386719 263.542969 C 54.402344 262.558594 53.851562 261.226562 53.851562 259.832031 L 53.851562 128.375 C 53.851562 126.980469 54.402344 125.644531 55.386719 124.660156 C 56.371094 123.675781 57.707031 123.125 59.101562 123.125 Z M 59.101562 123.125 " clip-rule="nonzero"/></clipPath><clipPath id="2e98843b0e"><path d="M 53.851562 66.082031 L 98.445312 66.082031 L 98.445312 98.238281 L 53.851562 98.238281 Z M 53.851562 66.082031 " clip-rule="nonzero"/></clipPath><clipPath id="8bafbbf1b8"><path d="M 58.351562 66.082031 L 93.925781 66.082031 C 96.410156 66.082031 98.425781 68.09375 98.425781 70.582031 L 98.425781 93.738281 C 98.425781 96.226562 96.410156 98.238281 93.925781 98.238281 L 58.351562 98.238281 C 55.867188 98.238281 53.851562 96.226562 53.851562 93.738281 L 53.851562 70.582031 C 53.851562 68.09375 55.867188 66.082031 58.351562 66.082031 Z M 58.351562 66.082031 " clip-rule="nonzero"/></clipPath><clipPath id="8e8267b585"><path d="M 53.851562 289.871094 L 98.445312 289.871094 L 98.445312 322.027344 L 53.851562 322.027344 Z M 53.851562 289.871094 " clip-rule="nonzero"/></clipPath><clipPath id="8c0cc5cc7b"><path d="M 57.601562 289.871094 L 94.675781 289.871094 C 95.671875 289.871094 96.625 290.265625 97.328125 290.96875 C 98.03125 291.671875 98.425781 292.625 98.425781 293.621094 L 98.425781 318.277344 C 98.425781 319.273438 98.03125 320.226562 97.328125 320.929688 C 96.625 321.632812 95.671875 322.027344 94.675781 322.027344 L 57.601562 322.027344 C 56.605469 322.027344 55.652344 321.632812 54.949219 320.929688 C 54.246094 320.226562 53.851562 319.273438 53.851562 318.277344 L 53.851562 293.621094 C 53.851562 292.625 54.246094 291.671875 54.949219 290.96875 C 55.652344 290.265625 56.605469 289.871094 57.601562 289.871094 Z M 57.601562 289.871094 " clip-rule="nonzero"/></clipPath><clipPath id="d08c7c10ed"><path d="M 108.351562 291.777344 L 321.175781 291.777344 L 321.175781 303.289062 L 108.351562 303.289062 Z M 108.351562 291.777344 " clip-rule="nonzero"/></clipPath><clipPath id="d26ab0a90c"><path d="M 112.851562 291.777344 L 316.648438 291.777344 C 319.132812 291.777344 321.148438 293.789062 321.148438 296.277344 L 321.148438 298.789062 C 321.148438 301.273438 319.132812 303.289062 316.648438 303.289062 L 112.851562 303.289062 C 110.367188 303.289062 108.351562 301.273438 108.351562 298.789062 L 108.351562 296.277344 C 108.351562 293.789062 110.367188 291.777344 112.851562 291.777344 Z M 112.851562 291.777344 " clip-rule="nonzero"/></clipPath><clipPath id="f0c4fe43f1"><path d="M 108.351562 310.277344 L 321.183594 310.277344 L 321.183594 322.027344 L 108.351562 322.027344 Z M 108.351562 310.277344 " clip-rule="nonzero"/></clipPath><clipPath id="c2e740833c"><path d="M 112.101562 310.277344 L 317.398438 310.277344 C 318.394531 310.277344 319.347656 310.671875 320.050781 311.375 C 320.753906 312.078125 321.148438 313.03125 321.148438 314.027344 L 321.148438 318.277344 C 321.148438 319.273438 320.753906 320.226562 320.050781 320.929688 C 319.347656 321.632812 318.394531 322.027344 317.398438 322.027344 L 112.101562 322.027344 C 111.105469 322.027344 110.152344 321.632812 109.449219 320.929688 C 108.746094 320.226562 108.351562 319.273438 108.351562 318.277344 L 108.351562 314.027344 C 108.351562 313.03125 108.746094 312.078125 109.449219 311.375 C 110.152344 310.671875 111.105469 310.277344 112.101562 310.277344 Z M 112.101562 310.277344 " clip-rule="nonzero"/></clipPath><clipPath id="cc7e047ae2"><path d="M 53.851562 348.722656 L 321 348.722656 L 321 375 L 53.851562 375 Z M 53.851562 348.722656 " clip-rule="nonzero"/></clipPath><clipPath id="4aba538f17"><path d="M 59.101562 348.722656 L 315.898438 348.722656 C 317.292969 348.722656 318.628906 349.273438 319.613281 350.261719 C 320.597656 351.246094 321.148438 352.578125 321.148438 353.972656 L 321.148438 489.242188 C 321.148438 490.636719 320.597656 491.972656 319.613281 492.957031 C 318.628906 493.941406 317.292969 494.492188 315.898438 494.492188 L 59.101562 494.492188 C 57.707031 494.492188 56.371094 493.941406 55.386719 492.957031 C 54.402344 491.972656 53.851562 490.636719 53.851562 489.242188 L 53.851562 353.972656 C 53.851562 352.578125 54.402344 351.246094 55.386719 350.261719 C 56.371094 349.273438 57.707031 348.722656 59.101562 348.722656 Z M 59.101562 348.722656 " clip-rule="nonzero"/></clipPath></defs><g clip-path="url(#81dca838dd)"><g clip-path="url(#726beff1d3)"><path fill="#1e1e1e" d="M 341.933594 10.792969 L 341.933594 587.53125 L 33.050781 587.53125 L 33.050781 10.792969 Z M 341.933594 10.792969 " fill-opacity="1" fill-rule="nonzero"/></g></g><path fill="#e1e1e1" d="M 295.609375 0 L 79.386719 0 C 47.742188 0 22 25.742188 22 57.386719 L 22 540.726562 C 22 572.371094 47.742188 598.113281 79.386719 598.113281 L 295.609375 598.113281 C 327.25 598.113281 352.992188 572.371094 352.992188 540.726562 L 352.992188 57.386719 C 352.992188 25.742188 327.25 0 295.609375 0 Z M 340.089844 540.726562 C 340.089844 565.253906 320.136719 585.207031 295.609375 585.207031 L 79.386719 585.207031 C 54.859375 585.207031 34.910156 565.253906 34.910156 540.726562 L 34.910156 57.386719 C 34.910156 32.859375 54.859375 12.90625 79.386719 12.90625 L 295.609375 12.90625 C 320.132812 12.90625 340.085938 32.859375 340.085938 57.386719 L 340.085938 540.726562 Z M 340.089844 540.726562 " fill-opacity="1" fill-rule="nonzero"/><path fill="#e1e1e1" d="M 197.269531 32.371094 C 197.269531 33.015625 197.207031 33.648438 197.082031 34.277344 C 196.957031 34.90625 196.769531 35.519531 196.523438 36.113281 C 196.28125 36.703125 195.980469 37.265625 195.621094 37.800781 C 195.265625 38.335938 194.859375 38.828125 194.40625 39.28125 C 193.953125 39.734375 193.460938 40.140625 192.925781 40.496094 C 192.394531 40.851562 191.832031 41.152344 191.238281 41.398438 C 190.644531 41.644531 190.035156 41.832031 189.40625 41.957031 C 188.777344 42.082031 188.140625 42.144531 187.5 42.144531 C 186.855469 42.144531 186.222656 42.082031 185.59375 41.957031 C 184.964844 41.832031 184.351562 41.644531 183.761719 41.398438 C 183.167969 41.152344 182.605469 40.851562 182.070312 40.496094 C 181.539062 40.140625 181.042969 39.734375 180.589844 39.28125 C 180.136719 38.828125 179.730469 38.335938 179.375 37.800781 C 179.019531 37.265625 178.71875 36.703125 178.472656 36.113281 C 178.226562 35.519531 178.042969 34.90625 177.917969 34.277344 C 177.792969 33.648438 177.730469 33.015625 177.730469 32.371094 C 177.730469 31.730469 177.792969 31.097656 177.917969 30.46875 C 178.042969 29.835938 178.226562 29.226562 178.472656 28.632812 C 178.71875 28.042969 179.019531 27.476562 179.375 26.945312 C 179.730469 26.410156 180.136719 25.917969 180.589844 25.464844 C 181.042969 25.011719 181.539062 24.605469 182.070312 24.25 C 182.605469 23.894531 183.167969 23.59375 183.761719 23.347656 C 184.351562 23.101562 184.964844 22.914062 185.59375 22.789062 C 186.222656 22.664062 186.855469 22.601562 187.5 22.601562 C 188.140625 22.601562 188.777344 22.664062 189.40625 22.789062 C 190.035156 22.914062 190.644531 23.101562 191.238281 23.347656 C 191.832031 23.59375 192.394531 23.894531 192.925781 24.25 C 193.460938 24.605469 193.953125 25.011719 194.40625 25.464844 C 194.859375 25.917969 195.265625 26.410156 195.621094 26.945312 C 195.980469 27.476562 196.28125 28.042969 196.523438 28.632812 C 196.769531 29.226562 196.957031 29.835938 197.082031 30.46875 C 197.207031 31.097656 197.269531 31.730469 197.269531 32.371094 Z M 197.269531 32.371094 " fill-opacity="1" fill-rule="nonzero"/><g clip-path="url(#7fceb07252)"><g clip-path="url(#2beb8f45cf)"><path fill="#4f4f57" d="M 108.351562 66.082031 L 315.375 66.082031 L 315.375 98.238281 L 108.351562 98.238281 Z M 108.351562 66.082031 " fill-opacity="1" fill-rule="nonzero"/></g></g><g clip-path="url(#f67f8e1235)"><g clip-path="url(#6d5e0993f5)"><path fill="#4f4f57" d="M 53.851562 123.125 L 321.132812 123.125 L 321.132812 265.082031 L 53.851562 265.082031 Z M 53.851562 123.125 " fill-opacity="1" fill-rule="nonzero"/></g></g><g clip-path="url(#2e98843b0e)"><g clip-path="url(#8bafbbf1b8)"><path fill="#4f4f57" d="M 53.851562 66.082031 L 98.445312 66.082031 L 98.445312 98.238281 L 53.851562 98.238281 Z M 53.851562 66.082031 " fill-opacity="1" fill-rule="nonzero"/></g></g><g clip-path="url(#8e8267b585)"><g clip-path="url(#8c0cc5cc7b)"><path fill="#4f4f57" d="M 53.851562 289.871094 L 98.445312 289.871094 L 98.445312 322.027344 L 53.851562 322.027344 Z M 53.851562 289.871094 " fill-opacity="1" fill-rule="nonzero"/></g></g><g clip-path="url(#d08c7c10ed)"><g clip-path="url(#d26ab0a90c)"><path fill="#4f4f57" d="M 108.351562 291.777344 L 321.128906 291.777344 L 321.128906 303.289062 L 108.351562 303.289062 Z M 108.351562 291.777344 " fill-opacity="1" fill-rule="nonzero"/></g></g><g clip-path="url(#f0c4fe43f1)"><g clip-path="url(#c2e740833c)"><path fill="#4f4f57" d="M 108.351562 310.277344 L 321.140625 310.277344 L 321.140625 322.027344 L 108.351562 322.027344 Z M 108.351562 310.277344 " fill-opacity="1" fill-rule="nonzero"/></g></g><g clip-path="url(#cc7e047ae2)"><g clip-path="url(#4aba538f17)"><path fill="#4f4f57" d="M 53.851562 348.722656 L 320.910156 348.722656 L 320.910156 494.492188 L 53.851562 494.492188 Z M 53.851562 348.722656 " fill-opacity="1" fill-rule="nonzero"/></g></g></svg>