<svg xmlns="http://www.w3.org/2000/svg" xmlns:xlink="http://www.w3.org/1999/xlink" width="500" zoomAndPan="magnify" viewBox="0 0 375 374.999991" height="500" preserveAspectRatio="xMidYMid meet" version="1.0"><defs><clipPath id="2d66794bdf"><path d="M 29.761719 12.589844 L 345.230469 12.589844 L 345.230469 375 L 29.761719 375 Z M 29.761719 12.589844 " clip-rule="nonzero"/></clipPath><clipPath id="95c0f0360c"><path d="M 345.230469 30.589844 L 345.230469 583.417969 C 345.230469 593.359375 337.171875 601.417969 327.230469 601.417969 L 47.761719 601.417969 C 37.820312 601.417969 29.761719 593.359375 29.761719 583.417969 L 29.761719 30.589844 C 29.761719 20.648438 37.820312 12.589844 47.761719 12.589844 L 327.230469 12.589844 C 337.171875 12.589844 345.230469 20.648438 345.230469 30.589844 Z M 345.230469 30.589844 " clip-rule="nonzero"/></clipPath><clipPath id="1e4cbc7cc9"><path d="M 18.363281 0 L 356.613281 0 L 356.613281 375 L 18.363281 375 Z M 18.363281 0 " clip-rule="nonzero"/></clipPath><clipPath id="bd770e649b"><path d="M 106.664062 69.050781 L 324 69.050781 L 324 101.894531 L 106.664062 101.894531 Z M 106.664062 69.050781 " clip-rule="nonzero"/></clipPath><clipPath id="7147fc18a3"><path d="M 114.164062 69.050781 L 316.5 69.050781 C 320.640625 69.050781 324 72.410156 324 76.550781 L 324 94.394531 C 324 98.539062 320.640625 101.894531 316.5 101.894531 L 114.164062 101.894531 C 110.019531 101.894531 106.664062 98.539062 106.664062 94.394531 L 106.664062 76.550781 C 106.664062 72.410156 110.019531 69.050781 114.164062 69.050781 Z M 114.164062 69.050781 " clip-rule="nonzero"/></clipPath><clipPath id="3d4f4b0698"><path d="M 51 128.230469 L 324 128.230469 L 324 272.296875 L 51 272.296875 Z M 51 128.230469 " clip-rule="nonzero"/></clipPath><clipPath id="e5816ffb07"><path d="M 58.5 128.789062 L 316.5 128.789062 C 320.640625 128.789062 324 132.148438 324 136.289062 L 324 264.796875 C 324 268.9375 320.640625 272.296875 316.5 272.296875 L 58.5 272.296875 C 54.359375 272.296875 51 268.9375 51 264.796875 L 51 136.289062 C 51 132.148438 54.359375 128.789062 58.5 128.789062 Z M 58.5 128.789062 " clip-rule="nonzero"/></clipPath><clipPath id="1ec5bbaf1e"><path d="M 51 69.050781 L 96.546875 69.050781 L 96.546875 101.894531 L 51 101.894531 Z M 51 69.050781 " clip-rule="nonzero"/></clipPath><clipPath id="2626f46c3f"><path d="M 58.5 69.050781 L 89.027344 69.050781 C 93.167969 69.050781 96.527344 72.410156 96.527344 76.550781 L 96.527344 94.394531 C 96.527344 98.539062 93.167969 101.894531 89.027344 101.894531 L 58.5 101.894531 C 54.359375 101.894531 51 98.539062 51 94.394531 L 51 76.550781 C 51 72.410156 54.359375 69.050781 58.5 69.050781 Z M 58.5 69.050781 " clip-rule="nonzero"/></clipPath><clipPath id="b752e5940e"><path d="M 51 299.296875 L 324 299.296875 L 324 375 L 51 375 Z M 51 299.296875 " clip-rule="nonzero"/></clipPath><clipPath id="7dbd7c512b"><path d="M 58.5 299.296875 L 316.5 299.296875 C 320.640625 299.296875 324 302.65625 324 306.796875 L 324 439.175781 C 324 443.320312 320.640625 446.675781 316.5 446.675781 L 58.5 446.675781 C 54.359375 446.675781 51 443.320312 51 439.175781 L 51 306.796875 C 51 302.65625 54.359375 299.296875 58.5 299.296875 Z M 58.5 299.296875 " clip-rule="nonzero"/></clipPath></defs><g clip-path="url(#2d66794bdf)"><g clip-path="url(#95c0f0360c)"><path fill="#121212" d="M 345.230469 12.589844 L 345.230469 601.628906 L 29.761719 601.628906 L 29.761719 12.589844 Z M 345.230469 12.589844 " fill-opacity="1" fill-rule="nonzero"/></g></g><g clip-path="url(#1e4cbc7cc9)"><path fill="#4f4f57" d="M 297.914062 0 L 77.074219 0 C 44.757812 0 18.464844 26.292969 18.464844 58.609375 L 18.464844 552.265625 C 18.464844 584.582031 44.757812 610.875 77.074219 610.875 L 297.910156 610.875 C 330.226562 610.875 356.519531 584.582031 356.519531 552.265625 L 356.519531 58.609375 C 356.519531 26.292969 330.226562 0 297.910156 0 Z M 343.339844 552.265625 C 343.339844 577.3125 322.960938 597.691406 297.914062 597.691406 L 77.074219 597.691406 C 52.027344 597.691406 31.648438 577.3125 31.648438 552.265625 L 31.648438 58.609375 C 31.648438 33.5625 52.027344 13.183594 77.074219 13.183594 L 297.910156 13.183594 C 322.960938 13.183594 343.335938 33.5625 343.335938 58.609375 L 343.335938 552.265625 Z M 343.339844 552.265625 " fill-opacity="1" fill-rule="nonzero"/></g><path fill="#4f4f57" d="M 197.472656 33.0625 C 197.472656 33.71875 197.410156 34.367188 197.28125 35.011719 C 197.152344 35.652344 196.964844 36.277344 196.714844 36.882812 C 196.460938 37.488281 196.15625 38.0625 195.792969 38.609375 C 195.425781 39.152344 195.015625 39.65625 194.550781 40.121094 C 194.085938 40.582031 193.582031 40.996094 193.039062 41.359375 C 192.492188 41.722656 191.917969 42.03125 191.3125 42.28125 C 190.707031 42.535156 190.082031 42.722656 189.441406 42.851562 C 188.796875 42.976562 188.148438 43.042969 187.496094 43.042969 C 186.839844 43.042969 186.191406 42.976562 185.546875 42.851562 C 184.90625 42.722656 184.28125 42.535156 183.675781 42.28125 C 183.070312 42.03125 182.496094 41.722656 181.949219 41.359375 C 181.40625 40.996094 180.902344 40.582031 180.4375 40.121094 C 179.976562 39.65625 179.5625 39.152344 179.199219 38.609375 C 178.832031 38.0625 178.527344 37.488281 178.273438 36.882812 C 178.023438 36.277344 177.835938 35.652344 177.707031 35.011719 C 177.578125 34.367188 177.515625 33.71875 177.515625 33.0625 C 177.515625 32.410156 177.578125 31.757812 177.707031 31.117188 C 177.835938 30.472656 178.023438 29.851562 178.273438 29.246094 C 178.527344 28.640625 178.832031 28.066406 179.199219 27.519531 C 179.5625 26.976562 179.976562 26.472656 180.4375 26.007812 C 180.902344 25.542969 181.40625 25.128906 181.949219 24.765625 C 182.496094 24.402344 183.070312 24.09375 183.675781 23.84375 C 184.28125 23.59375 184.90625 23.40625 185.546875 23.277344 C 186.191406 23.148438 186.839844 23.085938 187.496094 23.085938 C 188.148438 23.085938 188.796875 23.148438 189.441406 23.277344 C 190.082031 23.40625 190.707031 23.59375 191.3125 23.84375 C 191.917969 24.09375 192.492188 24.402344 193.039062 24.765625 C 193.582031 25.128906 194.085938 25.542969 194.550781 26.007812 C 195.015625 26.472656 195.425781 26.976562 195.792969 27.519531 C 196.15625 28.066406 196.460938 28.640625 196.714844 29.246094 C 196.964844 29.851562 197.152344 30.472656 197.28125 31.117188 C 197.410156 31.757812 197.472656 32.410156 197.472656 33.0625 Z M 197.472656 33.0625 " fill-opacity="1" fill-rule="nonzero"/><g clip-path="url(#bd770e649b)"><g clip-path="url(#7147fc18a3)"><path fill="#4f4f57" d="M 106.664062 69.050781 L 324.003906 69.050781 L 324.003906 101.894531 L 106.664062 101.894531 Z M 106.664062 69.050781 " fill-opacity="1" fill-rule="nonzero"/></g></g><g clip-path="url(#3d4f4b0698)"><g clip-path="url(#e5816ffb07)"><path fill="#4f4f57" d="M 51 128.789062 L 324 128.789062 L 324 272.296875 L 51 272.296875 Z M 51 128.789062 " fill-opacity="1" fill-rule="nonzero"/></g></g><g clip-path="url(#1ec5bbaf1e)"><g clip-path="url(#2626f46c3f)"><path fill="#4f4f57" d="M 51 69.050781 L 96.546875 69.050781 L 96.546875 101.894531 L 51 101.894531 Z M 51 69.050781 " fill-opacity="1" fill-rule="nonzero"/></g></g><g clip-path="url(#b752e5940e)"><g clip-path="url(#7dbd7c512b)"><path fill="#4f4f57" d="M 51 299.296875 L 323.882812 299.296875 L 323.882812 446.675781 L 51 446.675781 Z M 51 299.296875 " fill-opacity="1" fill-rule="nonzero"/></g></g></svg>