<svg xmlns="http://www.w3.org/2000/svg" xmlns:xlink="http://www.w3.org/1999/xlink" width="500" zoomAndPan="magnify" viewBox="0 0 375 374.999991" height="500" preserveAspectRatio="xMidYMid meet" version="1.0"><defs><clipPath id="9ba2bb4287"><path d="M 29.761719 12.589844 L 345.230469 12.589844 L 345.230469 375 L 29.761719 375 Z M 29.761719 12.589844 " clip-rule="nonzero"/></clipPath><clipPath id="39887e6c67"><path d="M 345.230469 30.589844 L 345.230469 583.417969 C 345.230469 593.359375 337.171875 601.417969 327.230469 601.417969 L 47.761719 601.417969 C 37.820312 601.417969 29.761719 593.359375 29.761719 583.417969 L 29.761719 30.589844 C 29.761719 20.648438 37.820312 12.589844 47.761719 12.589844 L 327.230469 12.589844 C 337.171875 12.589844 345.230469 20.648438 345.230469 30.589844 Z M 345.230469 30.589844 " clip-rule="nonzero"/></clipPath><clipPath id="53db24b8d4"><path d="M 18.363281 0 L 356.613281 0 L 356.613281 375 L 18.363281 375 Z M 18.363281 0 " clip-rule="nonzero"/></clipPath><clipPath id="fc1f2e3eb5"><path d="M 106.664062 69.050781 L 318.230469 69.050781 L 318.230469 101.894531 L 106.664062 101.894531 Z M 106.664062 69.050781 " clip-rule="nonzero"/></clipPath><clipPath id="4df58bb308"><path d="M 111.164062 69.050781 L 313.65625 69.050781 C 314.851562 69.050781 315.996094 69.523438 316.839844 70.367188 C 317.683594 71.210938 318.15625 72.355469 318.15625 73.550781 L 318.15625 97.394531 C 318.15625 98.589844 317.683594 99.734375 316.839844 100.578125 C 315.996094 101.421875 314.851562 101.894531 313.65625 101.894531 L 111.164062 101.894531 C 109.96875 101.894531 108.824219 101.421875 107.980469 100.578125 C 107.136719 99.734375 106.664062 98.589844 106.664062 97.394531 L 106.664062 73.550781 C 106.664062 72.355469 107.136719 71.210938 107.980469 70.367188 C 108.824219 69.523438 109.96875 69.050781 111.164062 69.050781 Z M 111.164062 69.050781 " clip-rule="nonzero"/></clipPath><clipPath id="2b7f252493"><path d="M 51 127.3125 L 324 127.3125 L 324 272.296875 L 51 272.296875 Z M 51 127.3125 " clip-rule="nonzero"/></clipPath><clipPath id="d498546b9a"><path d="M 56.25 127.3125 L 318.75 127.3125 C 320.140625 127.3125 321.476562 127.863281 322.460938 128.847656 C 323.445312 129.832031 324 131.167969 324 132.5625 L 324 267.046875 C 324 268.4375 323.445312 269.773438 322.460938 270.757812 C 321.476562 271.742188 320.140625 272.296875 318.75 272.296875 L 56.25 272.296875 C 54.859375 272.296875 53.523438 271.742188 52.539062 270.757812 C 51.554688 269.773438 51 268.4375 51 267.046875 L 51 132.5625 C 51 131.167969 51.554688 129.832031 52.539062 128.847656 C 53.523438 127.863281 54.859375 127.3125 56.25 127.3125 Z M 56.25 127.3125 " clip-rule="nonzero"/></clipPath><clipPath id="7f0d3b11ce"><path d="M 51 69.050781 L 96.546875 69.050781 L 96.546875 101.894531 L 51 101.894531 Z M 51 69.050781 " clip-rule="nonzero"/></clipPath><clipPath id="05c6107c60"><path d="M 55.5 69.050781 L 92.027344 69.050781 C 93.21875 69.050781 94.363281 69.523438 95.210938 70.367188 C 96.054688 71.210938 96.527344 72.355469 96.527344 73.550781 L 96.527344 97.394531 C 96.527344 98.589844 96.054688 99.734375 95.210938 100.578125 C 94.363281 101.421875 93.21875 101.894531 92.027344 101.894531 L 55.5 101.894531 C 54.308594 101.894531 53.164062 101.421875 52.320312 100.578125 C 51.472656 99.734375 51 98.589844 51 97.394531 L 51 73.550781 C 51 72.355469 51.472656 71.210938 52.320312 70.367188 C 53.164062 69.523438 54.308594 69.050781 55.5 69.050781 Z M 55.5 69.050781 " clip-rule="nonzero"/></clipPath><clipPath id="62d15a853c"><path d="M 51 297.613281 L 96.546875 297.613281 L 96.546875 330.457031 L 51 330.457031 Z M 51 297.613281 " clip-rule="nonzero"/></clipPath><clipPath id="e07f63d2bd"><path d="M 54.75 297.613281 L 92.777344 297.613281 C 93.773438 297.613281 94.726562 298.007812 95.429688 298.710938 C 96.132812 299.414062 96.527344 300.367188 96.527344 301.363281 L 96.527344 326.707031 C 96.527344 327.703125 96.132812 328.65625 95.429688 329.359375 C 94.726562 330.0625 93.773438 330.457031 92.777344 330.457031 L 54.75 330.457031 C 53.753906 330.457031 52.800781 330.0625 52.097656 329.359375 C 51.394531 328.65625 51 327.703125 51 326.707031 L 51 301.363281 C 51 300.367188 51.394531 299.414062 52.097656 298.710938 C 52.800781 298.007812 53.753906 297.613281 54.75 297.613281 Z M 54.75 297.613281 " clip-rule="nonzero"/></clipPath><clipPath id="8dedc8aaf5"><path d="M 106.664062 299.558594 L 324 299.558594 L 324 311.316406 L 106.664062 311.316406 Z M 106.664062 299.558594 " clip-rule="nonzero"/></clipPath><clipPath id="7a2440f351"><path d="M 111.164062 299.558594 L 319.5 299.558594 C 320.691406 299.558594 321.835938 300.035156 322.679688 300.878906 C 323.527344 301.722656 324 302.867188 324 304.058594 L 324 306.816406 C 324 308.011719 323.527344 309.15625 322.679688 310 C 321.835938 310.84375 320.691406 311.316406 319.5 311.316406 L 111.164062 311.316406 C 109.96875 311.316406 108.824219 310.84375 107.980469 310 C 107.136719 309.15625 106.664062 308.011719 106.664062 306.816406 L 106.664062 304.058594 C 106.664062 302.867188 107.136719 301.722656 107.980469 300.878906 C 108.824219 300.035156 109.96875 299.558594 111.164062 299.558594 Z M 111.164062 299.558594 " clip-rule="nonzero"/></clipPath><clipPath id="be78439ead"><path d="M 106.664062 318.453125 L 324 318.453125 L 324 330.457031 L 106.664062 330.457031 Z M 106.664062 318.453125 " clip-rule="nonzero"/></clipPath><clipPath id="2948d060d2"><path d="M 110.414062 318.453125 L 320.25 318.453125 C 321.246094 318.453125 322.199219 318.847656 322.902344 319.550781 C 323.605469 320.253906 324 321.210938 324 322.203125 L 324 326.707031 C 324 327.703125 323.605469 328.65625 322.902344 329.359375 C 322.199219 330.0625 321.246094 330.457031 320.25 330.457031 L 110.414062 330.457031 C 109.417969 330.457031 108.464844 330.0625 107.761719 329.359375 C 107.058594 328.65625 106.664062 327.703125 106.664062 326.707031 L 106.664062 322.203125 C 106.664062 321.210938 107.058594 320.253906 107.761719 319.550781 C 108.464844 318.847656 109.417969 318.453125 110.414062 318.453125 Z M 110.414062 318.453125 " clip-rule="nonzero"/></clipPath><clipPath id="2f5ff4c589"><path d="M 51 357.71875 L 324 357.71875 L 324 375 L 51 375 Z M 51 357.71875 " clip-rule="nonzero"/></clipPath><clipPath id="88489b5da1"><path d="M 56.25 357.71875 L 318.75 357.71875 C 320.140625 357.71875 321.476562 358.273438 322.460938 359.257812 C 323.445312 360.242188 324 361.578125 324 362.96875 L 324 501.351562 C 324 502.742188 323.445312 504.078125 322.460938 505.0625 C 321.476562 506.046875 320.140625 506.601562 318.75 506.601562 L 56.25 506.601562 C 54.859375 506.601562 53.523438 506.046875 52.539062 505.0625 C 51.554688 504.078125 51 502.742188 51 501.351562 L 51 362.96875 C 51 361.578125 51.554688 360.242188 52.539062 359.257812 C 53.523438 358.273438 54.859375 357.71875 56.25 357.71875 Z M 56.25 357.71875 " clip-rule="nonzero"/></clipPath></defs><g clip-path="url(#9ba2bb4287)"><g clip-path="url(#39887e6c67)"><path fill="#ffffff" d="M 345.230469 12.589844 L 345.230469 601.628906 L 29.761719 601.628906 L 29.761719 12.589844 Z M 345.230469 12.589844 " fill-opacity="1" fill-rule="nonzero"/></g></g><g clip-path="url(#53db24b8d4)"><path fill="#e1e1e1" d="M 297.914062 0 L 77.074219 0 C 44.757812 0 18.464844 26.292969 18.464844 58.609375 L 18.464844 552.265625 C 18.464844 584.582031 44.757812 610.875 77.074219 610.875 L 297.910156 610.875 C 330.226562 610.875 356.519531 584.582031 356.519531 552.265625 L 356.519531 58.609375 C 356.519531 26.292969 330.226562 0 297.910156 0 Z M 343.339844 552.265625 C 343.339844 577.3125 322.960938 597.691406 297.914062 597.691406 L 77.074219 597.691406 C 52.027344 597.691406 31.648438 577.3125 31.648438 552.265625 L 31.648438 58.609375 C 31.648438 33.5625 52.027344 13.183594 77.074219 13.183594 L 297.910156 13.183594 C 322.960938 13.183594 343.335938 33.5625 343.335938 58.609375 L 343.335938 552.265625 Z M 343.339844 552.265625 " fill-opacity="1" fill-rule="nonzero"/></g><path fill="#e1e1e1" d="M 197.472656 33.0625 C 197.472656 33.71875 197.410156 34.367188 197.28125 35.011719 C 197.152344 35.652344 196.964844 36.277344 196.714844 36.882812 C 196.460938 37.488281 196.15625 38.0625 195.792969 38.609375 C 195.425781 39.152344 195.015625 39.65625 194.550781 40.121094 C 194.085938 40.582031 193.582031 40.996094 193.039062 41.359375 C 192.492188 41.722656 191.917969 42.03125 191.3125 42.28125 C 190.707031 42.535156 190.082031 42.722656 189.441406 42.851562 C 188.796875 42.976562 188.148438 43.042969 187.496094 43.042969 C 186.839844 43.042969 186.191406 42.976562 185.546875 42.851562 C 184.90625 42.722656 184.28125 42.535156 183.675781 42.28125 C 183.070312 42.03125 182.496094 41.722656 181.949219 41.359375 C 181.40625 40.996094 180.902344 40.582031 180.4375 40.121094 C 179.976562 39.65625 179.5625 39.152344 179.199219 38.609375 C 178.832031 38.0625 178.527344 37.488281 178.273438 36.882812 C 178.023438 36.277344 177.835938 35.652344 177.707031 35.011719 C 177.578125 34.367188 177.515625 33.71875 177.515625 33.0625 C 177.515625 32.410156 177.578125 31.757812 177.707031 31.117188 C 177.835938 30.472656 178.023438 29.851562 178.273438 29.246094 C 178.527344 28.640625 178.832031 28.066406 179.199219 27.519531 C 179.5625 26.976562 179.976562 26.472656 180.4375 26.007812 C 180.902344 25.542969 181.40625 25.128906 181.949219 24.765625 C 182.496094 24.402344 183.070312 24.09375 183.675781 23.84375 C 184.28125 23.59375 184.90625 23.40625 185.546875 23.277344 C 186.191406 23.148438 186.839844 23.085938 187.496094 23.085938 C 188.148438 23.085938 188.796875 23.148438 189.441406 23.277344 C 190.082031 23.40625 190.707031 23.59375 191.3125 23.84375 C 191.917969 24.09375 192.492188 24.402344 193.039062 24.765625 C 193.582031 25.128906 194.085938 25.542969 194.550781 26.007812 C 195.015625 26.472656 195.425781 26.976562 195.792969 27.519531 C 196.15625 28.066406 196.460938 28.640625 196.714844 29.246094 C 196.964844 29.851562 197.152344 30.472656 197.28125 31.117188 C 197.410156 31.757812 197.472656 32.410156 197.472656 33.0625 Z M 197.472656 33.0625 " fill-opacity="1" fill-rule="nonzero"/><g clip-path="url(#fc1f2e3eb5)"><g clip-path="url(#4df58bb308)"><path fill="#ebeaef" d="M 106.664062 69.050781 L 318.101562 69.050781 L 318.101562 101.894531 L 106.664062 101.894531 Z M 106.664062 69.050781 " fill-opacity="1" fill-rule="nonzero"/></g></g><g clip-path="url(#2b7f252493)"><g clip-path="url(#d498546b9a)"><path fill="#ebeaef" d="M 51 127.3125 L 323.980469 127.3125 L 323.980469 272.296875 L 51 272.296875 Z M 51 127.3125 " fill-opacity="1" fill-rule="nonzero"/></g></g><g clip-path="url(#7f0d3b11ce)"><g clip-path="url(#05c6107c60)"><path fill="#ebeaef" d="M 51 69.050781 L 96.546875 69.050781 L 96.546875 101.894531 L 51 101.894531 Z M 51 69.050781 " fill-opacity="1" fill-rule="nonzero"/></g></g><g clip-path="url(#62d15a853c)"><g clip-path="url(#e07f63d2bd)"><path fill="#ebeaef" d="M 51 297.613281 L 96.546875 297.613281 L 96.546875 330.457031 L 51 330.457031 Z M 51 297.613281 " fill-opacity="1" fill-rule="nonzero"/></g></g><g clip-path="url(#8dedc8aaf5)"><g clip-path="url(#7a2440f351)"><path fill="#ebeaef" d="M 106.664062 299.558594 L 323.980469 299.558594 L 323.980469 311.316406 L 106.664062 311.316406 Z M 106.664062 299.558594 " fill-opacity="1" fill-rule="nonzero"/></g></g><g clip-path="url(#be78439ead)"><g clip-path="url(#2948d060d2)"><path fill="#ebeaef" d="M 106.664062 318.453125 L 323.988281 318.453125 L 323.988281 330.457031 L 106.664062 330.457031 Z M 106.664062 318.453125 " fill-opacity="1" fill-rule="nonzero"/></g></g><g clip-path="url(#2f5ff4c589)"><g clip-path="url(#88489b5da1)"><path fill="#ebeaef" d="M 51 357.71875 L 323.753906 357.71875 L 323.753906 506.601562 L 51 506.601562 Z M 51 357.71875 " fill-opacity="1" fill-rule="nonzero"/></g></g></svg>