<svg xmlns="http://www.w3.org/2000/svg" xmlns:xlink="http://www.w3.org/1999/xlink" width="500" zoomAndPan="magnify" viewBox="0 0 375 374.999991" height="500" preserveAspectRatio="xMidYMid meet" version="1.0"><defs><clipPath id="8369e2a44d"><path d="M 29.761719 12.527344 L 345.230469 12.527344 L 345.230469 375 L 29.761719 375 Z M 29.761719 12.527344 " clip-rule="nonzero"/></clipPath><clipPath id="67f6b98141"><path d="M 345.230469 30.527344 L 345.230469 583.359375 C 345.230469 593.300781 337.171875 601.359375 327.230469 601.359375 L 47.761719 601.359375 C 37.820312 601.359375 29.761719 593.300781 29.761719 583.359375 L 29.761719 30.527344 C 29.761719 20.585938 37.820312 12.527344 47.761719 12.527344 L 327.230469 12.527344 C 337.171875 12.527344 345.230469 20.585938 345.230469 30.527344 Z M 345.230469 30.527344 " clip-rule="nonzero"/></clipPath><clipPath id="bd3780c788"><path d="M 18.363281 0 L 356.613281 0 L 356.613281 375 L 18.363281 375 Z M 18.363281 0 " clip-rule="nonzero"/></clipPath><clipPath id="2da13624a2"><path d="M 100.625 69.050781 L 324 69.050781 L 324 101.84375 L 100.625 101.84375 Z M 100.625 69.050781 " clip-rule="nonzero"/></clipPath><clipPath id="3fbefe7121"><path d="M 111.875 69.050781 L 312.75 69.050781 C 318.960938 69.050781 324 74.085938 324 80.300781 L 324 90.59375 C 324 96.804688 318.960938 101.84375 312.75 101.84375 L 111.875 101.84375 C 105.664062 101.84375 100.625 96.804688 100.625 90.59375 L 100.625 80.300781 C 100.625 74.085938 105.664062 69.050781 111.875 69.050781 Z M 111.875 69.050781 " clip-rule="nonzero"/></clipPath><clipPath id="0b8c3d22c8"><path d="M 51 128.84375 L 324 128.84375 L 324 272.347656 L 51 272.347656 Z M 51 128.84375 " clip-rule="nonzero"/></clipPath><clipPath id="3e7138eb5e"><path d="M 62.25 128.84375 L 312.75 128.84375 C 318.960938 128.84375 324 133.878906 324 140.09375 L 324 261.097656 C 324 267.3125 318.960938 272.347656 312.75 272.347656 L 62.25 272.347656 C 56.039062 272.347656 51 267.3125 51 261.097656 L 51 140.09375 C 51 133.878906 56.039062 128.84375 62.25 128.84375 Z M 62.25 128.84375 " clip-rule="nonzero"/></clipPath><clipPath id="ee33533e29"><path d="M 51 69.050781 L 93 69.050781 L 93 101.894531 L 51 101.894531 Z M 51 69.050781 " clip-rule="nonzero"/></clipPath><clipPath id="0b62cb2bd0"><path d="M 62.25 69.050781 L 81.734375 69.050781 C 87.945312 69.050781 92.984375 74.085938 92.984375 80.300781 L 92.984375 90.644531 C 92.984375 96.859375 87.945312 101.894531 81.734375 101.894531 L 62.25 101.894531 C 56.039062 101.894531 51 96.859375 51 90.644531 L 51 80.300781 C 51 74.085938 56.039062 69.050781 62.25 69.050781 Z M 62.25 69.050781 " clip-rule="nonzero"/></clipPath><clipPath id="c489ca7270"><path d="M 51 299.296875 L 324 299.296875 L 324 375 L 51 375 Z M 51 299.296875 " clip-rule="nonzero"/></clipPath><clipPath id="7fff3278bb"><path d="M 58.5 299.296875 L 316.5 299.296875 C 320.640625 299.296875 324 302.65625 324 306.796875 L 324 439.175781 C 324 443.320312 320.640625 446.675781 316.5 446.675781 L 58.5 446.675781 C 54.359375 446.675781 51 443.320312 51 439.175781 L 51 306.796875 C 51 302.65625 54.359375 299.296875 58.5 299.296875 Z M 58.5 299.296875 " clip-rule="nonzero"/></clipPath></defs><g clip-path="url(#8369e2a44d)"><g clip-path="url(#67f6b98141)"><path fill="#fafafa" d="M 345.230469 12.527344 L 345.230469 601.566406 L 29.761719 601.566406 L 29.761719 12.527344 Z M 345.230469 12.527344 " fill-opacity="1" fill-rule="nonzero"/></g></g><g clip-path="url(#bd3780c788)"><path fill="#e5e3e9" d="M 297.914062 0 L 77.074219 0 C 44.757812 0 18.464844 26.292969 18.464844 58.609375 L 18.464844 552.265625 C 18.464844 584.582031 44.757812 610.875 77.074219 610.875 L 297.910156 610.875 C 330.226562 610.875 356.519531 584.582031 356.519531 552.265625 L 356.519531 58.609375 C 356.519531 26.292969 330.226562 0 297.910156 0 Z M 343.339844 552.265625 C 343.339844 577.3125 322.960938 597.691406 297.914062 597.691406 L 77.074219 597.691406 C 52.027344 597.691406 31.648438 577.3125 31.648438 552.265625 L 31.648438 58.609375 C 31.648438 33.5625 52.027344 13.183594 77.074219 13.183594 L 297.910156 13.183594 C 322.960938 13.183594 343.335938 33.5625 343.335938 58.609375 L 343.335938 552.265625 Z M 343.339844 552.265625 " fill-opacity="1" fill-rule="nonzero"/></g><path fill="#e5e3e9" d="M 197.472656 33.0625 C 197.472656 33.71875 197.410156 34.367188 197.28125 35.011719 C 197.152344 35.652344 196.964844 36.277344 196.714844 36.882812 C 196.460938 37.488281 196.15625 38.0625 195.792969 38.609375 C 195.425781 39.152344 195.015625 39.65625 194.550781 40.121094 C 194.085938 40.582031 193.582031 40.996094 193.039062 41.359375 C 192.492188 41.722656 191.917969 42.03125 191.3125 42.28125 C 190.707031 42.535156 190.082031 42.722656 189.441406 42.851562 C 188.796875 42.976562 188.148438 43.042969 187.496094 43.042969 C 186.839844 43.042969 186.191406 42.976562 185.546875 42.851562 C 184.90625 42.722656 184.28125 42.535156 183.675781 42.28125 C 183.070312 42.03125 182.496094 41.722656 181.949219 41.359375 C 181.40625 40.996094 180.902344 40.582031 180.4375 40.121094 C 179.976562 39.65625 179.5625 39.152344 179.199219 38.609375 C 178.832031 38.0625 178.527344 37.488281 178.273438 36.882812 C 178.023438 36.277344 177.835938 35.652344 177.707031 35.011719 C 177.578125 34.367188 177.515625 33.71875 177.515625 33.0625 C 177.515625 32.410156 177.578125 31.757812 177.707031 31.117188 C 177.835938 30.472656 178.023438 29.851562 178.273438 29.246094 C 178.527344 28.640625 178.832031 28.066406 179.199219 27.519531 C 179.5625 26.976562 179.976562 26.472656 180.4375 26.007812 C 180.902344 25.542969 181.40625 25.128906 181.949219 24.765625 C 182.496094 24.402344 183.070312 24.09375 183.675781 23.84375 C 184.28125 23.59375 184.90625 23.40625 185.546875 23.277344 C 186.191406 23.148438 186.839844 23.085938 187.496094 23.085938 C 188.148438 23.085938 188.796875 23.148438 189.441406 23.277344 C 190.082031 23.40625 190.707031 23.59375 191.3125 23.84375 C 191.917969 24.09375 192.492188 24.402344 193.039062 24.765625 C 193.582031 25.128906 194.085938 25.542969 194.550781 26.007812 C 195.015625 26.472656 195.425781 26.976562 195.792969 27.519531 C 196.15625 28.066406 196.460938 28.640625 196.714844 29.246094 C 196.964844 29.851562 197.152344 30.472656 197.28125 31.117188 C 197.410156 31.757812 197.472656 32.410156 197.472656 33.0625 Z M 197.472656 33.0625 " fill-opacity="1" fill-rule="nonzero"/><g clip-path="url(#2da13624a2)"><g clip-path="url(#3fbefe7121)"><path fill="#e5e3e9" d="M 100.625 69.050781 L 324.019531 69.050781 L 324.019531 101.84375 L 100.625 101.84375 Z M 100.625 69.050781 " fill-opacity="1" fill-rule="nonzero"/></g></g><g clip-path="url(#0b8c3d22c8)"><g clip-path="url(#3e7138eb5e)"><path fill="#e5e3e9" d="M 51 128.84375 L 324 128.84375 L 324 272.347656 L 51 272.347656 Z M 51 128.84375 " fill-opacity="1" fill-rule="nonzero"/></g></g><g clip-path="url(#ee33533e29)"><g clip-path="url(#0b62cb2bd0)"><path fill="#e5e3e9" d="M 51 69.050781 L 92.953125 69.050781 L 92.953125 101.894531 L 51 101.894531 Z M 51 69.050781 " fill-opacity="1" fill-rule="nonzero"/></g></g><g clip-path="url(#c489ca7270)"><g clip-path="url(#7fff3278bb)"><path fill="#e5e3e9" d="M 51 299.296875 L 323.882812 299.296875 L 323.882812 446.675781 L 51 446.675781 Z M 51 299.296875 " fill-opacity="1" fill-rule="nonzero"/></g></g></svg>