<svg xmlns="http://www.w3.org/2000/svg" xmlns:xlink="http://www.w3.org/1999/xlink" width="1024" zoomAndPan="magnify" viewBox="0 0 768 767.999994" height="1024" preserveAspectRatio="xMidYMid meet" version="1.0"><defs><clipPath id="cc43e59c40"><path d="M 98.871094 175.652344 L 691.625 175.652344 L 691.625 768 L 98.871094 768 Z M 98.871094 175.652344 " clip-rule="nonzero"/></clipPath><clipPath id="d43a03a1cd"><path d="M 101.574219 405.757812 L 138.554688 405.757812 L 138.554688 460.902344 L 101.574219 460.902344 Z M 101.574219 405.757812 " clip-rule="nonzero"/></clipPath><clipPath id="d2613208f4"><path d="M 138.355469 419.378906 C 130.226562 458.867188 126.160156 460.609375 122.097656 460.609375 C 117.449219 461.191406 109.902344 458.867188 106.417969 454.804688 C 102.933594 450.738281 101.191406 442.027344 102.933594 436.800781 C 104.675781 432.15625 110.480469 426.347656 115.128906 425.1875 C 119.773438 424.027344 127.324219 425.769531 131.386719 429.253906 C 134.871094 432.738281 138.355469 439.707031 137.777344 444.351562 C 137.195312 448.996094 132.550781 456.546875 127.902344 458.289062 C 122.675781 460.609375 111.0625 458.289062 106.996094 454.804688 C 103.511719 451.320312 101.191406 443.191406 102.351562 438.542969 C 103.511719 433.898438 108.738281 427.511719 113.386719 425.769531 C 118.613281 424.027344 130.226562 427.511719 134.292969 431.574219 C 137.777344 435.058594 138.9375 442.027344 137.195312 446.671875 C 135.453125 451.898438 127.324219 459.449219 122.097656 460.609375 C 117.449219 461.773438 109.902344 458.289062 106.417969 454.804688 C 103.511719 451.898438 102.351562 447.835938 101.769531 442.609375 C 101.191406 434.480469 102.351562 416.476562 108.160156 410.667969 C 112.804688 406.023438 122.675781 404.863281 127.902344 406.605469 C 132.550781 408.347656 138.355469 419.378906 138.355469 419.378906 " clip-rule="nonzero"/></clipPath><clipPath id="4757cf16a8"><path d="M 100.085938 423.828125 L 137.390625 423.828125 L 137.390625 461 L 100.085938 461 Z M 100.085938 423.828125 " clip-rule="nonzero"/></clipPath><clipPath id="6c6c4e4c1c"><path d="M 137.195312 441.449219 C 120.355469 461.773438 115.128906 461.773438 111.644531 460.03125 C 107.578125 458.289062 101.769531 451.898438 100.609375 447.253906 C 99.449219 442.609375 101.191406 435.640625 104.09375 432.15625 C 106.996094 428.671875 114.546875 424.605469 119.773438 425.769531 C 125.582031 426.929688 134.292969 435.058594 135.453125 440.285156 C 136.613281 444.933594 133.710938 452.480469 130.226562 455.964844 C 126.742188 459.449219 119.191406 461.773438 114.546875 460.609375 C 109.902344 459.449219 103.511719 454.804688 101.769531 450.15625 C 100.027344 444.933594 102.933594 433.316406 106.996094 429.253906 C 110.480469 425.769531 118.613281 424.605469 123.257812 426.347656 C 128.484375 428.671875 134.871094 437.964844 135.453125 443.191406 C 136.035156 447.253906 134.292969 451.898438 131.386719 454.804688 C 127.902344 458.289062 120.355469 461.191406 115.707031 460.609375 C 111.0625 460.03125 104.09375 455.964844 102.351562 451.320312 C 100.027344 446.675781 101.191406 437.964844 104.09375 433.316406 C 106.417969 428.671875 112.804688 424.605469 117.449219 424.027344 C 122.097656 423.445312 129.644531 426.347656 133.128906 429.832031 C 136.035156 432.738281 137.195312 441.449219 137.195312 441.449219 " clip-rule="nonzero"/></clipPath><clipPath id="5102cb993a"><path d="M 100 401.714844 L 141.359375 401.714844 L 141.359375 458.496094 L 100 458.496094 Z M 100 401.714844 " clip-rule="nonzero"/></clipPath><clipPath id="44a9c42527"><path d="M 100.027344 439.707031 C 116.871094 401.957031 120.933594 401.378906 124.417969 401.957031 C 129.066406 402.539062 136.035156 406.605469 138.355469 410.667969 C 140.679688 414.734375 141.261719 422.863281 138.9375 427.511719 C 136.613281 432.15625 130.226562 436.800781 125.582031 437.382812 C 120.933594 437.964844 113.386719 435.058594 109.902344 431.574219 C 106.417969 428.089844 104.09375 420.542969 105.835938 415.894531 C 107.578125 410.667969 116.871094 401.957031 122.675781 401.957031 C 128.484375 401.957031 137.777344 407.765625 140.097656 414.152344 C 143.582031 422.863281 136.613281 447.835938 129.644531 454.222656 C 125 458.867188 114.546875 459.449219 109.902344 457.125 C 104.675781 454.804688 100.027344 439.707031 100.027344 439.707031 " clip-rule="nonzero"/></clipPath><clipPath id="7a0c887e21"><path d="M 103.429688 175.652344 L 691.605469 175.652344 L 691.605469 763.828125 L 103.429688 763.828125 Z M 103.429688 175.652344 " clip-rule="nonzero"/></clipPath><clipPath id="7bca05f3a4"><path d="M 105 444 L 414 444 L 414 670 L 105 670 Z M 105 444 " clip-rule="nonzero"/></clipPath><clipPath id="a24f457c0c"><path d="M 382.75 707.4375 L 81.167969 521.003906 L 139.460938 426.710938 L 441.042969 613.144531 Z M 382.75 707.4375 " clip-rule="nonzero"/></clipPath><clipPath id="92b98fa5c5"><path d="M 382.75 707.4375 L 81.167969 521.003906 L 139.460938 426.710938 L 441.042969 613.144531 Z M 382.75 707.4375 " clip-rule="nonzero"/></clipPath><clipPath id="9fc747e8b6"><path d="M 143 390 L 190 390 L 190 495 L 143 495 Z M 143 390 " clip-rule="nonzero"/></clipPath><clipPath id="6373db64ec"><path d="M 159.726562 498.355469 L 134.503906 394.175781 L 166.5625 386.414062 L 191.785156 490.59375 Z M 159.726562 498.355469 " clip-rule="nonzero"/></clipPath><clipPath id="f5124b4991"><path d="M 159.726562 498.355469 L 134.503906 394.175781 L 166.5625 386.414062 L 191.785156 490.59375 Z M 159.726562 498.355469 " clip-rule="nonzero"/></clipPath></defs><path fill="#6fc2b4" d="M 384.4375 165.808594 C 377.816406 150.574219 367.984375 120.910156 377.644531 89.238281 C 393.492188 37.273438 455.675781 0.0117188 530.511719 4.839844 C 540.449219 68.234375 515.957031 127.625 469.816406 154.125 C 438.734375 171.972656 406.535156 169.894531 391.285156 167.765625 C 406.898438 155.933594 424.425781 140.726562 441.945312 121.476562 C 468.988281 91.769531 487.039062 62.289062 498.984375 38.765625 C 481.820312 62.703125 461.195312 88.566406 436.554688 114.988281 C 418.777344 134.054688 401.214844 150.9375 384.4375 165.808594 Z M 384.4375 165.808594 " fill-opacity="1" fill-rule="nonzero"/><path fill="#6fc2b4" d="M 364.488281 167.464844 C 352.808594 170.996094 330.332031 175.640625 308.050781 165.898438 C 271.496094 149.90625 249.613281 101.371094 259.511719 47.195312 C 306.605469 45.347656 347.839844 68.273438 363.238281 104.1875 C 373.609375 128.382812 369.351562 151.691406 366.496094 162.636719 C 359.195312 150.238281 349.597656 136.160156 337.046875 121.738281 C 317.679688 99.480469 297.714844 83.800781 281.574219 73.082031 C 297.574219 87.640625 314.679688 104.890625 331.855469 125.117188 C 344.25 139.710938 355.066406 153.960938 364.488281 167.464844 Z M 364.488281 167.464844 " fill-opacity="1" fill-rule="nonzero"/><path fill="#ffb347" d="M 377.082031 573.988281 C 390.316406 576.984375 404.007812 580.078125 417.492188 583.492188 C 434.273438 587.738281 449.851562 595.488281 465.113281 607.195312 C 477.386719 616.605469 488.183594 627.917969 497.21875 640.824219 C 497.8125 641.675781 498.375 642.5625 498.957031 643.429688 C 499.597656 642.777344 500.242188 642.121094 500.882812 641.472656 C 504.320312 638 506.152344 633.636719 507.019531 628.875 C 509.109375 617.429688 507.375 606.222656 504.160156 595.292969 C 492.671875 556.273438 472.144531 522.503906 444.0625 493.242188 C 436.398438 485.257812 427.789062 478.398438 418.222656 472.734375 C 401.917969 463.082031 385.542969 462.777344 368.835938 471.707031 C 358.386719 477.296875 349.042969 484.359375 340.515625 492.507812 C 322.035156 510.175781 306.738281 530.113281 294.171875 551.957031 C 296.519531 552.773438 298.941406 553.585938 301.4375 554.402344 C 326.183594 562.480469 352.058594 568.332031 377.082031 573.988281 " fill-opacity="1" fill-rule="nonzero"/><path fill="#ffb347" d="M 369.714844 408.40625 C 373.457031 404.691406 376.742188 400.261719 379.289062 395.628906 C 387.4375 380.804688 389.640625 364.523438 389.898438 349.507812 C 389.855469 326.609375 384.773438 304.558594 375.859375 287.320312 C 370.449219 276.859375 363.75 267.410156 353.890625 260.628906 C 339.453125 250.699219 323.910156 252.730469 312.441406 265.957031 C 307.085938 272.117188 303.492188 279.265625 300.917969 286.941406 C 294.582031 305.828125 293.984375 325.15625 296.921875 344.660156 C 299.703125 363.109375 305.492188 380.480469 316.402344 395.855469 C 321.285156 402.726562 327.070312 408.6875 334.515625 412.847656 C 346.753906 419.683594 359.761719 418.277344 369.714844 408.40625 " fill-opacity="1" fill-rule="nonzero"/><path fill="#ffb347" d="M 422.738281 407.085938 C 433.15625 422.132812 449.140625 425.667969 464.988281 416.503906 C 473.167969 411.765625 479.71875 405.230469 485.171875 397.625 C 501.457031 374.914062 508.421875 349.234375 509.199219 320.710938 C 508.90625 316.738281 508.753906 311.882812 508.152344 307.085938 C 506.753906 295.929688 503.785156 285.25 497.289062 275.867188 C 486.878906 260.816406 470.886719 257.292969 455.042969 266.457031 C 447.042969 271.082031 440.515625 277.371094 435.234375 284.84375 C 415.855469 312.292969 408.445312 342.917969 411.917969 376.175781 C 413.070312 387.238281 416.296875 397.792969 422.738281 407.085938 " fill-opacity="1" fill-rule="nonzero"/><path fill="#ffb347" d="M 260.210938 378.265625 C 244.378906 371.75 229.160156 376.429688 219.613281 390.644531 C 215.777344 396.363281 213.0625 402.636719 211.890625 409.367188 C 205.671875 445.230469 215.179688 476.496094 240.367188 502.691406 C 244.820312 507.324219 250.785156 510.730469 256.515625 513.859375 C 262.976562 517.382812 270.214844 518.324219 277.535156 516.851562 C 288.980469 514.550781 296.339844 507.128906 301.40625 497.117188 C 306.546875 486.972656 308.167969 476.019531 308.359375 463.03125 C 307.699219 440.28125 300.617188 417.984375 285.523438 398.488281 C 278.742188 389.734375 270.589844 382.542969 260.210938 378.265625 " fill-opacity="1" fill-rule="nonzero"/><path fill="#ffb347" d="M 481.660156 504.707031 C 483.121094 515.285156 486.324219 525.246094 493.566406 533.394531 C 502.042969 542.929688 512.648438 546.351562 525.109375 543.378906 C 537.03125 540.539062 546.382812 533.484375 554.113281 524.378906 C 572.972656 502.152344 581.523438 476.289062 579.804688 447.21875 C 579.132812 435.859375 576.015625 425.082031 568.898438 415.855469 C 560.332031 404.753906 547.691406 400.640625 534.203125 404.492188 C 525.042969 407.113281 517.347656 412.230469 510.78125 418.949219 C 490.855469 439.332031 481.910156 464.261719 480.652344 492.480469 C 480.972656 496.503906 481.101562 500.636719 481.660156 504.707031 " fill-opacity="1" fill-rule="nonzero"/><g clip-path="url(#cc43e59c40)"><path fill="#ffb347" d="M 691.195312 471.816406 C 691.195312 578.878906 632.972656 677.957031 539.246094 730.417969 C 515.792969 743.574219 490.660156 753.441406 464.507812 759.722656 C 464.484375 759.746094 464.191406 759.816406 464.191406 759.816406 C 441.644531 765.234375 418.375 767.980469 395.035156 767.980469 C 231.71875 767.980469 98.871094 635.109375 98.871094 471.816406 C 98.871094 469.433594 98.894531 467.101562 98.964844 464.742188 C 99.074219 459.410156 99.347656 454.171875 99.730469 449.179688 L 100.050781 445.097656 L 101.886719 448.773438 C 104.449219 453.941406 109.691406 466.417969 109.691406 466.417969 C 112.546875 472.996094 129.902344 502.757812 159.5 537.574219 C 174.632812 555.332031 190.28125 571.277344 206.019531 584.957031 C 217.296875 594.777344 228.773438 603.53125 240.136719 611.019531 C 245.695312 614.667969 252.179688 618.34375 258.871094 621.609375 C 259.328125 621.839844 259.730469 622.066406 260.140625 622.269531 C 262.75 623.585938 265.128906 624.742188 267.402344 625.785156 L 268.285156 625.988281 L 268.488281 626.035156 C 282.027344 631.839844 295.527344 635.832031 307.480469 637.578125 C 312.171875 638.257812 316.734375 638.625 321.042969 638.625 C 326.171875 638.625 330.957031 638.125 335.289062 637.148438 C 312.855469 630.953125 292.257812 621.886719 274.046875 610.132812 C 272.890625 609.386719 271.777344 608.617188 270.640625 607.84375 C 267.355469 605.640625 264.132812 603.375 260.871094 600.878906 C 255.515625 596.753906 250.480469 592.441406 245.507812 587.703125 C 242.5625 584.839844 240.179688 582.257812 238.660156 580.558594 C 233.605469 574.953125 231.222656 571.371094 231.105469 571.214844 C 230.90625 570.78125 227.820312 563.929688 226.980469 556.851562 L 226.933594 556.421875 C 226.390625 551.160156 227.296875 547.144531 229.65625 544.492188 C 231.71875 542.179688 234.851562 541 238.957031 540.976562 L 239.226562 540.976562 C 240.226562 540.976562 241.335938 541.066406 242.628906 541.226562 L 243.0625 541.269531 C 244.035156 541.429688 245.148438 541.636719 246.261719 541.882812 L 246.691406 542.085938 C 250.546875 544.921875 255.378906 547.800781 261.457031 550.863281 C 264.335938 552.269531 267.355469 553.679688 270.441406 554.992188 C 275.839844 557.308594 281.941406 559.667969 288.652344 562.023438 C 291.628906 563.089844 294.710938 564.132812 297.933594 565.179688 C 336.308594 577.722656 375.710938 584.617188 414.71875 594.480469 C 430.847656 598.566406 445.027344 606.074219 458.203125 616.1875 C 469.566406 624.902344 479.546875 635.378906 487.921875 647.308594 C 488.84375 648.648438 489.753906 650.03125 490.660156 651.417969 C 494.109375 656.769531 497.285156 662.394531 500.074219 668.222656 C 501.1875 670.539062 502.207031 672.808594 503.136719 674.980469 C 504.976562 679.269531 506.652344 683.78125 508.171875 688.410156 C 511.054688 686.9375 514.023438 685.28125 517.066406 683.535156 C 520.375 681.628906 523.710938 679.585938 526.953125 677.5 C 597.402344 632.136719 639.457031 555.261719 639.457031 471.816406 C 639.457031 337.039062 529.8125 227.417969 395.035156 227.417969 C 260.277344 227.417969 150.632812 337.039062 150.632812 471.816406 C 150.632812 477.988281 150.878906 484.292969 151.359375 490.527344 L 151.675781 494.589844 L 149.292969 491.28125 C 146.800781 487.785156 144.324219 484.203125 141.742188 480.347656 C 141.285156 479.597656 140.8125 478.871094 140.308594 478.121094 L 139.992188 477.648438 C 138.65625 475.605469 137.316406 473.539062 136.027344 471.453125 C 134.507812 469.046875 133.03125 466.644531 131.53125 464.21875 C 130.761719 462.949219 129.96875 461.65625 129.171875 460.386719 C 119.671875 444.890625 111.300781 430.21875 104.269531 416.746094 L 104.089844 416.402344 L 104.15625 415.992188 C 130.808594 276.726562 253.132812 175.652344 395.035156 175.652344 C 558.347656 175.652344 691.195312 308.503906 691.195312 471.816406 " fill-opacity="1" fill-rule="nonzero"/></g><g clip-path="url(#d43a03a1cd)"><g clip-path="url(#d2613208f4)"><path fill="#ffb347" d="M 78.542969 383.375 L 161.585938 383.375 L 161.585938 483.933594 L 78.542969 483.933594 Z M 78.542969 383.375 " fill-opacity="1" fill-rule="nonzero"/></g></g><g clip-path="url(#4757cf16a8)"><g clip-path="url(#6c6c4e4c1c)"><path fill="#ffb347" d="M 77.378906 400.796875 L 160.425781 400.796875 L 160.425781 483.839844 L 77.378906 483.839844 Z M 77.378906 400.796875 " fill-opacity="1" fill-rule="nonzero"/></g></g><g clip-path="url(#5102cb993a)"><g clip-path="url(#44a9c42527)"><path fill="#ffb347" d="M 76.800781 378.730469 L 163.328125 378.730469 L 163.328125 480.464844 L 76.800781 480.464844 Z M 76.800781 378.730469 " fill-opacity="1" fill-rule="nonzero"/></g></g><g clip-path="url(#7a0c887e21)"><path fill="#ffb347" d="M 397.308594 175.652344 C 234.941406 175.652344 103.429688 307.164062 103.429688 469.535156 C 103.429688 631.902344 234.941406 763.414062 397.308594 763.414062 C 559.679688 763.414062 691.1875 631.902344 691.1875 469.535156 C 691.1875 307.164062 559.679688 175.652344 397.308594 175.652344 Z M 397.308594 704.636719 C 267.414062 704.636719 162.207031 599.429688 162.207031 469.535156 C 162.207031 339.640625 267.414062 234.429688 397.308594 234.429688 C 527.203125 234.429688 632.414062 339.640625 632.414062 469.535156 C 632.414062 599.429688 527.203125 704.636719 397.308594 704.636719 Z M 397.308594 704.636719 " fill-opacity="1" fill-rule="nonzero"/></g><g clip-path="url(#7bca05f3a4)"><g clip-path="url(#a24f457c0c)"><g clip-path="url(#92b98fa5c5)"><path fill="#ffb347" d="M 413.160156 598.804688 C 413.179688 598.566406 413.175781 598.328125 413.144531 598.09375 C 413.113281 597.859375 413.058594 597.628906 412.980469 597.40625 C 412.902344 597.179688 412.796875 596.96875 412.671875 596.765625 C 412.546875 596.5625 412.402344 596.378906 412.238281 596.207031 C 412.070312 596.035156 411.890625 595.886719 411.691406 595.753906 C 411.492188 595.621094 411.285156 595.511719 411.0625 595.425781 C 410.839844 595.339844 410.613281 595.277344 410.378906 595.242188 C 410.144531 595.203125 409.90625 595.191406 409.671875 595.207031 C 372.136719 597.347656 320.589844 582.121094 270.59375 551.214844 C 220.597656 520.308594 183.933594 481.003906 169.074219 446.472656 C 168.980469 446.253906 168.863281 446.046875 168.726562 445.855469 C 168.585938 445.660156 168.429688 445.484375 168.253906 445.328125 C 168.078125 445.167969 167.886719 445.027344 167.679688 444.910156 C 167.472656 444.792969 167.257812 444.695312 167.03125 444.625 C 166.804688 444.554688 166.574219 444.507812 166.335938 444.484375 C 166.097656 444.460938 165.863281 444.464844 165.628906 444.496094 C 165.390625 444.523438 165.160156 444.578125 164.9375 444.65625 C 164.710938 444.734375 164.5 444.835938 164.296875 444.960938 L 106.679688 480.253906 C 106.324219 480.46875 106.023438 480.738281 105.773438 481.070312 C 105.519531 481.398438 105.339844 481.757812 105.222656 482.15625 C 105.105469 482.554688 105.066406 482.957031 105.101562 483.371094 C 105.136719 483.78125 105.246094 484.171875 105.429688 484.542969 C 109.265625 492.328125 113.535156 499.867188 118.246094 507.160156 C 143.445312 546.332031 183.777344 584.257812 231.8125 613.953125 C 279.84375 643.644531 331.796875 662.769531 378.105469 667.800781 C 386.730469 668.753906 395.382812 669.207031 404.0625 669.15625 C 404.476562 669.152344 404.875 669.074219 405.261719 668.921875 C 405.644531 668.769531 405.988281 668.554688 406.292969 668.273438 C 406.597656 667.992188 406.839844 667.664062 407.019531 667.292969 C 407.203125 666.921875 407.308594 666.53125 407.34375 666.117188 Z M 413.160156 598.804688 " fill-opacity="1" fill-rule="nonzero"/></g></g></g><g clip-path="url(#9fc747e8b6)"><g clip-path="url(#6373db64ec)"><g clip-path="url(#f5124b4991)"><path fill="#ffb347" d="M 189.328125 481.472656 C 189.4375 481.378906 189.527344 481.265625 189.585938 481.132812 C 189.648438 481.003906 189.679688 480.863281 189.683594 480.71875 C 189.683594 480.574219 189.652344 480.433594 189.59375 480.300781 C 189.535156 480.167969 189.453125 480.054688 189.34375 479.960938 C 180.824219 472.449219 172.980469 458.230469 168.804688 440.972656 C 164.625 423.710938 165.09375 407.480469 169.234375 396.90625 C 169.289062 396.769531 169.308594 396.628906 169.300781 396.484375 C 169.292969 396.339844 169.257812 396.203125 169.1875 396.074219 C 169.121094 395.945312 169.03125 395.835938 168.914062 395.746094 C 168.800781 395.660156 168.671875 395.597656 168.53125 395.566406 L 148.652344 390.910156 C 148.402344 390.851562 148.164062 390.886719 147.9375 391.011719 C 147.710938 391.136719 147.558594 391.324219 147.472656 391.570312 C 146.644531 394.054688 145.960938 396.582031 145.425781 399.148438 C 142.519531 412.917969 143.132812 429.632812 147.144531 446.214844 C 151.160156 462.796875 158.261719 477.9375 167.144531 488.851562 C 168.792969 490.890625 170.558594 492.824219 172.433594 494.65625 C 172.617188 494.839844 172.839844 494.933594 173.101562 494.941406 C 173.359375 494.949219 173.585938 494.871094 173.785156 494.703125 Z M 189.328125 481.472656 " fill-opacity="1" fill-rule="nonzero"/></g></g></g></svg>