<svg xmlns="http://www.w3.org/2000/svg" xmlns:xlink="http://www.w3.org/1999/xlink" width="1024" zoomAndPan="magnify" viewBox="0 0 768 767.999994" height="1024" preserveAspectRatio="xMidYMid meet" version="1.0"><defs><clipPath id="f2f734a082"><path d="M 87.378906 174.757812 L 680.601562 174.757812 L 680.601562 767.980469 L 87.378906 767.980469 Z M 87.378906 174.757812 " clip-rule="nonzero"/></clipPath><clipPath id="853c057e31"><path d="M 383.992188 174.757812 C 220.175781 174.757812 87.378906 307.554688 87.378906 471.371094 C 87.378906 635.183594 220.175781 767.980469 383.992188 767.980469 C 547.804688 767.980469 680.601562 635.183594 680.601562 471.371094 C 680.601562 307.554688 547.804688 174.757812 383.992188 174.757812 Z M 383.992188 174.757812 " clip-rule="nonzero"/></clipPath><clipPath id="fa169af123"><path d="M 342 11 L 527 11 L 527 158 L 342 158 Z M 342 11 " clip-rule="nonzero"/></clipPath><clipPath id="0d95ff54cc"><path d="M 338.046875 5.707031 L 526.054688 0 L 530.988281 162.550781 L 342.976562 168.257812 Z M 338.046875 5.707031 " clip-rule="nonzero"/></clipPath><clipPath id="cbb6d6a8cd"><path d="M 338.046875 5.707031 L 526.054688 0 L 530.988281 162.550781 L 342.976562 168.257812 Z M 338.046875 5.707031 " clip-rule="nonzero"/></clipPath><clipPath id="a150db053b"><path d="M 237 61 L 382 61 L 382 160 L 237 160 Z M 237 61 " clip-rule="nonzero"/></clipPath><clipPath id="78df7a576c"><path d="M 236.957031 55.339844 L 373.847656 46.832031 L 381.257812 166.125 L 244.367188 174.628906 Z M 236.957031 55.339844 " clip-rule="nonzero"/></clipPath><clipPath id="c2c581eebf"><path d="M 374.609375 46.785156 L 237.71875 55.292969 L 245.132812 174.582031 L 382.023438 166.078125 Z M 374.609375 46.785156 " clip-rule="nonzero"/></clipPath></defs><g clip-path="url(#f2f734a082)"><g clip-path="url(#853c057e31)"><path stroke-linecap="butt" transform="matrix(1.959352, 0, 0, 1.959352, 87.378975, 174.757965)" fill="none" stroke-linejoin="miter" d="M 151.383355 -0.0000778079 C 67.775895 -0.0000778079 -0.0000353314 67.775853 -0.0000353314 151.383313 C -0.0000353314 234.988779 67.775895 302.76471 151.383355 302.76471 C 234.988822 302.76471 302.764752 234.988779 302.764752 151.383313 C 302.764752 67.775853 234.988822 -0.0000778079 151.383355 -0.0000778079 Z M 151.383355 -0.0000778079 " stroke="#ffb347" stroke-width="61.244747" stroke-opacity="1" stroke-miterlimit="4"/></g></g><g clip-path="url(#fa169af123)"><g clip-path="url(#0d95ff54cc)"><g clip-path="url(#cbb6d6a8cd)"><path fill="#6fc2b4" d="M 467.722656 127.242188 C 417.070312 166.5625 342.84375 155.703125 342.84375 155.703125 C 342.84375 155.703125 350.710938 81.09375 401.363281 41.65625 C 452.011719 2.21875 526.238281 13.195312 526.238281 13.195312 C 526.238281 13.195312 518.375 87.925781 467.722656 127.242188 Z M 467.722656 127.242188 " fill-opacity="1" fill-rule="nonzero"/></g></g></g><g clip-path="url(#a150db053b)"><g clip-path="url(#78df7a576c)"><g clip-path="url(#c2c581eebf)"><path fill="#6fc2b4" d="M 288.167969 144.273438 C 327.800781 169.546875 381.246094 156.601562 381.246094 156.601562 C 381.246094 156.601562 370.457031 102.671875 330.820312 77.3125 C 291.179688 51.949219 237.742188 64.984375 237.742188 64.984375 C 237.742188 64.984375 248.535156 119 288.167969 144.273438 Z M 288.167969 144.273438 " fill-opacity="1" fill-rule="nonzero"/></g></g></g></svg>